<?xml version="1.0" standalone="no"?>
<!DOCTYPE svg PUBLIC "-//W3C//DTD SVG 1.1//EN" "http://www.w3.org/Graphics/SVG/1.1/DTD/svg11.dtd" >
<svg xmlns="http://www.w3.org/2000/svg">
<metadata>
This is a custom SVG font generated by IcoMoon.
1
</metadata>
<defs>
<font id="bj-350pixel" horiz-adv-x="512" >
<font-face units-per-em="512" ascent="480" descent="-32" />
<missing-glyph horiz-adv-x="512" />
<glyph unicode="&#x21;" d="M 256.00,432.00C 141.12,432.00, 48.00,338.88, 48.00,224.00s 93.12-208.00, 208.00-208.00s 208.00,93.12, 208.00,208.00S 370.88,432.00, 256.00,432.00z M 256.00,48.00C 158.80,48.00, 80.00,126.80, 80.00,224.00S 158.80,400.00, 256.00,400.00
			s 176.00-78.80, 176.00-176.00S 353.20,48.00, 256.00,48.00z M 237.248,276.656c-9.424-7.328-18.144-12.32-26.16-14.944l0.00-27.872 c 15.248,5.024, 28.496,12.784, 39.744,23.28
			l0.00-113.776 l 32.752,0.00 l0.00,160.00 l-26.976,0.00 C 253.12,293.552, 246.656,284.00, 237.248,276.656z" />
<glyph unicode="&#x22;" d="M 256.00,432.00C 141.12,432.00, 48.00,338.88, 48.00,224.00s 93.12-208.00, 208.00-208.00s 208.00,93.12, 208.00,208.00S 370.88,432.00, 256.00,432.00z M 256.00,48.00C 158.80,48.00, 80.00,126.80, 80.00,224.00S 158.80,400.00, 256.00,400.00
			s 176.00-78.80, 176.00-176.00S 353.20,48.00, 256.00,48.00z M 281.024,195.568c 9.712,8.896, 16.432,15.712, 20.16,20.448c 5.616,7.152, 9.712,14.00, 12.32,20.512
			c 2.576,6.528, 3.872,13.408, 3.872,20.624c0.00,12.688-4.528,23.312-13.568,31.84c-9.04,8.528-21.472,12.80-37.296,12.80
			c-14.432,0.00-26.464-3.68-36.096-11.04s-15.36-19.488-17.168-36.40l 30.624-3.056c 0.576,8.96, 2.768,15.36, 6.56,19.216
			c 3.776,3.856, 8.88,5.776, 15.296,5.776c 6.48,0.00, 11.568-1.84, 15.232-5.52c 3.68-3.68, 5.536-8.96, 5.536-15.808
			c0.00-6.192-2.128-12.464-6.336-18.816c-3.12-4.592-11.632-13.344-25.472-26.24c-17.216-15.968-28.736-28.784-34.56-38.448
			c-5.84-9.664-9.344-19.872-10.496-30.672l 107.744,0.00 l0.00,28.496 l-61.104,0.00 c 1.616,2.768, 3.696,5.616, 6.304,8.544
			C 265.136,180.752, 271.296,186.656, 281.024,195.568z" />
<glyph unicode="&#x23;" d="M 256.00,432.00C 141.12,432.00, 48.00,338.88, 48.00,224.00s 93.12-208.00, 208.00-208.00s 208.00,93.12, 208.00,208.00S 370.88,432.00, 256.00,432.00z M 256.00,48.00C 158.80,48.00, 80.00,126.80, 80.00,224.00S 158.80,400.00, 256.00,400.00
			s 176.00-78.80, 176.00-176.00S 353.20,48.00, 256.00,48.00z M 275.968,236.496c 15.408,8.40, 23.088,19.648, 23.088,33.728c0.00,9.936-3.744,18.832-11.28,26.72
			c-9.136,9.632-21.28,14.448-36.40,14.448c-8.848,0.00-16.832-1.664-23.952-4.976s-12.672-7.888-16.672-13.68
			c-3.968-5.792-6.96-13.552-8.944-23.264l 28.368-4.832c 0.816,7.024, 3.088,12.352, 6.816,16.016c 3.744,3.664, 8.256,5.488, 13.52,5.488
			c 5.344,0.00, 9.648-1.616, 12.864-4.816c 3.216-3.216, 4.832-7.536, 4.832-12.944c0.00-6.368-2.208-11.456-6.608-15.312
			c-4.368-3.84-10.768-5.648-19.12-5.424l-3.408-25.04c 5.504,1.536, 10.208,2.304, 14.16,2.304c 5.984,0.00, 11.056-2.256, 15.232-6.768
			c 4.176-4.512, 6.256-10.64, 6.256-18.352c0.00-8.144-2.176-14.624-6.512-19.424c-4.352-4.80-9.712-7.20-16.064-7.20
			c-5.92,0.00-10.976,2.00-15.12,6.00c-4.176,4.00-6.72,9.792-7.664,17.376l-29.744-3.616c 1.536-13.488, 7.072-24.40, 16.64-32.752
			c 9.568-8.352, 21.60-12.512, 36.128-12.512c 15.312,0.00, 28.128,4.944, 38.416,14.864c 10.304,9.904, 15.44,21.888, 15.44,35.952
			c0.00,9.68-2.752,17.952-8.24,24.80C 292.464,230.112, 285.136,234.528, 275.968,236.496z" />
<glyph unicode="&#x24;" d="M 256.00,432.00C 141.12,432.00, 48.00,338.88, 48.00,224.00s 93.12-208.00, 208.00-208.00s 208.00,93.12, 208.00,208.00S 370.88,432.00, 256.00,432.00z M 256.00,48.00C 158.80,48.00, 80.00,126.80, 80.00,224.00S 158.80,400.00, 256.00,400.00
			s 176.00-78.80, 176.00-176.00S 353.20,48.00, 256.00,48.00z M 290.816,298.608l-25.808,0.00 l-69.664-101.984l0.00-26.784 l 65.744,0.00 L 261.088,137.60 l 29.728,0.00 l0.00,32.256 l 19.888,0.00 l0.00,26.88 l-19.888,0.00 L 290.816,298.608 z
			 M 261.072,196.72l-36.944,0.00 l 36.944,54.944L 261.072,196.72 z" />
<glyph unicode="&#x25;" d="M 256.00,432.00C 141.12,432.00, 48.00,338.88, 48.00,224.00s 93.12-208.00, 208.00-208.00s 208.00,93.12, 208.00,208.00S 370.88,432.00, 256.00,432.00z M 256.00,48.00C 158.80,48.00, 80.00,126.80, 80.00,224.00S 158.80,400.00, 256.00,400.00
			s 176.00-78.80, 176.00-176.00S 353.20,48.00, 256.00,48.00z M 260.144,257.776c-7.152,0.00-14.176-1.712-21.008-5.136l 4.88,27.264l 57.952,0.00 l0.00,28.752 l-81.248,0.00 l-15.76-83.504
			l 24.912-3.632c 7.008,7.84, 14.912,11.744, 23.744,11.744c 7.072,0.00, 12.816-2.464, 17.232-7.392s 6.624-12.32, 6.624-22.176
			c0.00-10.512-2.24-18.368-6.672-23.60c-4.448-5.232-9.888-7.824-16.32-7.824c-5.616,0.00-10.576,2.016-14.88,6.064
			c-4.32,4.032-6.896,9.52-7.776,16.432l-30.608-3.168c 1.824-13.424, 7.392-24.096, 16.736-32.048c 9.344-7.936, 21.408-11.904, 36.224-11.904
			c 18.528,0.00, 32.992,7.056, 43.44,21.232c 7.664,10.352, 11.472,22.144, 11.472,35.36c0.00,15.824-4.736,28.704-14.224,38.64
			C 285.344,252.816, 273.776,257.776, 260.144,257.776z" />
<glyph unicode="&#x26;" d="M 256.00,432.00C 141.12,432.00, 48.00,338.88, 48.00,224.00s 93.12-208.00, 208.00-208.00s 208.00,93.12, 208.00,208.00S 370.88,432.00, 256.00,432.00z M 256.00,48.00C 158.80,48.00, 80.00,126.80, 80.00,224.00S 158.80,400.00, 256.00,400.00
			s 176.00-78.80, 176.00-176.00S 353.20,48.00, 256.00,48.00z M 264.32,245.04c-11.376,0.00-20.88-4.512-28.544-13.568c 1.168,18.416, 3.984,30.528, 8.464,36.336
			s 9.952,8.72, 16.448,8.72c 4.88,0.00, 8.848-1.456, 11.904-4.368s 4.96-7.408, 5.68-13.52l 29.744,3.28
			c-2.192,12.96-7.28,22.832-15.264,29.648c-7.984,6.80-18.064,10.208-30.24,10.208c-17.36,0.00-31.472-6.48-42.336-19.472
			c-10.864-12.976-16.288-34.16-16.288-63.552c0.00-28.656, 5.20-49.28, 15.648-61.856c 10.416-12.576, 23.728-18.88, 39.936-18.88
			c 15.104,0.00, 27.472,4.976, 37.088,14.896c 9.648,9.936, 14.448,23.12, 14.448,39.552c0.00,15.488-4.592,28.112-13.728,37.888
			C 288.144,240.16, 277.152,245.04, 264.32,245.04z M 275.216,170.24c-3.776-4.448-8.528-6.672-14.208-6.672c-5.888,0.00-11.136,2.72-15.728,8.16
			s-6.88,13.168-6.88,23.184c0.00,9.056, 2.032,15.92, 6.112,20.56s 9.072,6.976, 14.976,6.976c 6.112,0.00, 11.216-2.432, 15.296-7.296
			s 6.128-12.512, 6.128-22.976C 280.912,182.00, 279.008,174.688, 275.216,170.24z" />
<glyph unicode="&#x27;" d="M 256.00,432.00C 141.12,432.00, 48.00,338.88, 48.00,224.00s 93.12-208.00, 208.00-208.00s 208.00,93.12, 208.00,208.00S 370.88,432.00, 256.00,432.00z M 256.00,48.00C 158.80,48.00, 80.00,126.80, 80.00,224.00S 158.80,400.00, 256.00,400.00
			s 176.00-78.80, 176.00-176.00S 353.20,48.00, 256.00,48.00z M 203.904,267.344l 69.936,0.00 c-14.432-18.176-25.968-38.80-34.592-61.872
			c-8.64-23.056-13.216-45.696-13.712-67.888l 29.632,0.00 c-0.08,14.16, 2.24,30.224, 6.944,48.192c 4.688,17.984, 11.536,34.96, 20.48,50.944
			c 8.96,15.968, 17.76,28.224, 26.448,36.752l0.00,22.368 l-105.12,0.00 L 203.92,267.344 z" />
<glyph unicode="&#x28;" d="M 256.00,432.00C 141.12,432.00, 48.00,338.88, 48.00,224.00s 93.12-208.00, 208.00-208.00s 208.00,93.12, 208.00,208.00S 370.88,432.00, 256.00,432.00z M 256.00,48.00C 158.80,48.00, 80.00,126.80, 80.00,224.00S 158.80,400.00, 256.00,400.00
			s 176.00-78.80, 176.00-176.00S 353.20,48.00, 256.00,48.00z M 275.296,233.712c 6.992,3.056, 12.416,7.488, 16.288,13.296s 5.792,12.416, 5.792,19.856
			c0.00,11.968-4.224,21.84-12.624,29.648c-8.432,7.792-20.272,11.696-35.504,11.696c-15.392,0.00-27.248-3.904-35.60-11.696
			c-8.352-7.808-12.528-17.68-12.528-29.648c0.00-7.008, 1.808-13.44, 5.408-19.312c 3.632-5.872, 9.392-10.48, 17.344-13.84
			c-9.248-3.952-16.016-9.552-20.32-16.816c-4.288-7.264-6.432-15.248-6.432-23.936c0.00-15.776, 5.712-28.208, 17.152-37.248
			c 9.68-7.664, 21.824-11.504, 36.40-11.504c 15.664,0.00, 28.224,4.64, 37.664,13.92c 9.44,9.264, 14.16,21.312, 14.16,36.144
			c0.00,8.992-2.32,16.912-6.944,23.776S 284.192,230.128, 275.296,233.712z M 235.504,278.576c 3.504,3.504, 8.192,5.248, 14.096,5.248
			c 5.68,0.00, 10.256-1.728, 13.712-5.20c 3.456-3.456, 5.184-8.08, 5.184-13.84c0.00-6.128-1.744-10.928-5.248-14.384
			c-3.504-3.472-8.16-5.20-13.984-5.20c-5.76,0.00-10.352,1.712-13.824,5.136c-3.456,3.424-5.184,8.208-5.184,14.336
			C 230.256,270.432, 232.00,275.072, 235.504,278.576z M 265.888,175.792c-4.176-4.56-9.424-6.848-15.76-6.848
			c-6.48,0.00-11.904,2.352-16.256,7.104c-4.336,4.752-6.496,11.376-6.496,19.84c0.00,6.064, 1.84,11.696, 5.536,16.896
			c 3.68,5.184, 9.28,7.776, 16.784,7.776c 6.496,0.00, 11.856-2.288, 16.096-6.848c 4.224-4.576, 6.336-10.624, 6.336-18.128
			C 272.128,186.976, 270.048,180.368, 265.888,175.792z" />
<glyph unicode="&#x29;" d="M 256.00,432.00C 141.12,432.00, 48.00,338.88, 48.00,224.00s 93.12-208.00, 208.00-208.00s 208.00,93.12, 208.00,208.00S 370.88,432.00, 256.00,432.00z M 256.00,48.00C 158.80,48.00, 80.00,126.80, 80.00,224.00S 158.80,400.00, 256.00,400.00
			s 176.00-78.80, 176.00-176.00S 353.20,48.00, 256.00,48.00z M 249.744,298.608c-14.96,0.00-27.264-4.976-36.944-14.928c-9.664-9.952-14.48-23.072-14.48-39.328
			c0.00-15.616, 4.576-28.288, 13.712-38.016c 9.152-9.728, 20.048-14.608, 32.656-14.608c 11.60,0.00, 21.248,4.496, 28.992,13.472
			c-1.232-18.384-4.08-30.496-8.512-36.336c-4.448-5.824-9.824-8.752-16.176-8.752c-5.024,0.00-9.056,1.472-12.128,4.384
			s-4.96,7.424-5.68,13.488l-29.728-3.28c 2.192-13.328, 7.136-23.344, 14.864-30.032c 7.728-6.704, 17.872-10.064, 30.40-10.064
			c 17.44,0.00, 31.568,6.496, 42.432,19.504c 10.864,12.992, 16.304,34.16, 16.304,63.488c0.00,28.832-5.216,49.536-15.648,62.128
			C 279.376,292.304, 266.016,298.608, 249.744,298.608z M 264.88,221.232c-4.032-4.672-8.992-7.008-14.896-7.008
			c-6.112,0.00-11.216,2.416-15.296,7.28s-6.112,12.464-6.112,22.816c0.00,10.208, 1.872,17.568, 5.616,22.048c 3.76,4.48, 8.464,6.72, 14.16,6.72
			c 5.968,0.00, 11.216-2.736, 15.776-8.208c 4.544-5.472, 6.832-13.168, 6.832-23.088C 270.96,232.752, 268.944,225.904, 264.88,221.232z" />
<glyph unicode="&#x2a;" d="M 256.00,432.00C 141.12,432.00, 48.00,338.88, 48.00,224.00s 93.12-208.00, 208.00-208.00s 208.00,93.12, 208.00,208.00S 370.88,432.00, 256.00,432.00z M 256.00,48.00C 158.80,48.00, 80.00,126.80, 80.00,224.00S 158.80,400.00, 256.00,400.00
			s 176.00-78.80, 176.00-176.00S 353.20,48.00, 256.00,48.00z M 255.904,308.208c-15.568,0.00-27.664-5.472-36.352-16.416c-10.512-13.28-15.76-35.008-15.76-65.184
			c0.00-30.768, 4.784-52.16, 14.336-64.16s 22.16-17.984, 37.776-17.984c 15.536,0.00, 27.664,5.472, 36.336,16.40c 10.512,13.264, 15.776,35.072, 15.776,65.408
			c0.00,30.40-5.216,52.176-15.664,65.312C 283.60,302.656, 271.44,308.208, 255.904,308.208z M 272.72,186.256c-1.632-6.128-3.888-10.368-6.816-12.752
			c-2.944-2.368-6.288-3.552-10.00-3.552c-3.744,0.00-7.056,1.168-9.952,3.504s-5.296,7.008-7.20,14.048s-2.848,19.968-2.848,38.768
			s 1.056,32.192, 3.184,40.128c 1.60,6.128, 3.872,10.368, 6.816,12.736c 2.928,2.368, 6.256,3.552, 10.00,3.552
			c 3.712,0.00, 7.024-1.184, 9.936-3.552c 2.896-2.368, 5.28-7.072, 7.184-14.112s 2.88-19.968, 2.88-38.768S 274.848,194.128, 272.72,186.256z" />
<glyph unicode="&#x2b;" d="M 256.00,432.00C 141.12,432.00, 48.00,338.88, 48.00,224.00s 93.12-208.00, 208.00-208.00s 208.00,93.12, 208.00,208.00S 370.88,432.00, 256.00,432.00z
			 M 284.112,119.424l-39.504,0.00 l0.00,148.88 c-14.416-13.456-31.424-23.408-51.008-29.872l0.00,35.744 c 10.304,3.376, 21.504,9.792, 33.584,19.232
			c 12.096,9.44, 20.368,20.448, 24.88,33.024l 32.048,0.00 L 284.112,119.424 z" />
<glyph unicode="&#x2c;" d="M 256.00,432.00C 141.12,432.00, 48.00,338.88, 48.00,224.00s 93.12-208.00, 208.00-208.00s 208.00,93.12, 208.00,208.00S 370.88,432.00, 256.00,432.00z
			 M 325.472,153.184l0.00-36.752 l-138.496,0.00 c 1.488,13.872, 5.984,27.008, 13.488,39.44c 7.488,12.416, 22.288,28.912, 44.384,49.44
			c 17.776,16.592, 28.688,27.84, 32.72,33.744c 5.44,8.16, 8.16,16.224, 8.16,24.192c0.00,8.816-2.352,15.60-7.056,20.336s-11.20,7.104-19.504,7.104
			c-8.192,0.00-14.72-2.496-19.568-7.472s-7.648-13.232-8.368-24.784l-39.504,3.952c 2.336,21.744, 9.68,37.36, 22.048,46.848
			c 12.352,9.472, 27.824,14.208, 46.368,14.208c 20.32,0.00, 36.288-5.488, 47.904-16.448c 11.616-10.976, 17.424-24.608, 17.424-40.912
			c0.00-9.28-1.664-18.112-4.992-26.496s-8.592-17.184-15.808-26.352c-4.784-6.08-13.424-14.864-25.936-26.304
			c-12.496-11.424-20.416-19.008-23.744-22.752c-3.328-3.76-6.016-7.408-8.08-10.976L 325.472,153.20 z" />
<glyph unicode="&#x2d;" d="M 256.00,432.00C 141.12,432.00, 48.00,338.88, 48.00,224.00s 93.12-208.00, 208.00-208.00s 208.00,93.12, 208.00,208.00S 370.88,432.00, 256.00,432.00z
			 M 303.92,138.288c-13.216-12.752-29.664-19.104-49.376-19.104c-18.656,0.00-34.128,5.36-46.40,16.08c-12.304,10.72-19.424,24.72-21.392,42.032
			l 38.256,4.624c 1.216-9.712, 4.496-17.136, 9.856-22.288c 5.328-5.136, 11.808-7.712, 19.408-7.712c 8.16,0.00, 15.024,3.104, 20.624,9.312
			c 5.568,6.192, 8.352,14.544, 8.352,25.056c0.00,9.936-2.672,17.84-8.016,23.664c-5.36,5.824-11.872,8.72-19.568,8.72
			c-5.072,0.00-11.12-0.992-18.176-2.944l 4.352,31.952c 10.688-0.288, 18.848,2.032, 24.464,6.944c 5.616,4.912, 8.416,11.44, 8.416,19.584
			c0.00,6.928-2.048,12.432-6.16,16.56c-4.128,4.112-9.584,6.176-16.40,6.176c-6.736,0.00-12.464-2.336-17.232-7.008
			c-4.768-4.688-7.664-11.52-8.704-20.496l-36.496,6.176c 2.528,12.512, 6.352,22.512, 11.472,30.00s 12.24,13.36, 21.376,17.648
			s 19.392,6.416, 30.736,6.416c 19.408,0.00, 34.976-6.192, 46.688-18.576c 9.664-10.128, 14.48-21.568, 14.48-34.32c0.00-18.096-9.904-32.544-29.728-43.328
			c 11.824-2.528, 21.28-8.208, 28.352-17.008c 7.088-8.816, 10.624-19.44, 10.624-31.904C 323.744,166.432, 317.136,151.024, 303.92,138.288z" />
<glyph unicode="&#x2e;" d="M 261.744,198.672l0.00,70.48 l-47.536-70.48L 261.744,198.672 z M 256.00,432.00C 141.12,432.00, 48.00,338.88, 48.00,224.00
			s 93.12-208.00, 208.00-208.00s 208.00,93.12, 208.00,208.00S 370.88,432.00, 256.00,432.00z M 325.504,164.176L 300.00,164.176 l0.00-41.52 l-38.256,0.00 l0.00,41.52 l-84.496,0.00 l0.00,34.352 l 89.568,131.136l 33.184,0.00 l0.00-130.992 
			l 25.504,0.00 L 325.504,164.176 z" />
<glyph unicode="&#x2f;" d="M 256.00,432.00C 141.12,432.00, 48.00,338.88, 48.00,224.00s 93.12-208.00, 208.00-208.00s 208.00,93.12, 208.00,208.00S 370.88,432.00, 256.00,432.00z
			 M 312.736,149.12c-13.424-18.192-32.048-27.28-55.872-27.28c-19.04,0.00-34.56,5.104-46.576,15.344c-12.00,10.256-19.184,24.032-21.536,41.312
			l 39.504,4.096c 1.12-8.944, 4.448-16.00, 9.968-21.184c 5.52-5.216, 11.872-7.808, 19.072-7.808c 8.24,0.00, 15.184,3.344, 20.912,10.032
			c 5.68,6.688, 8.544,16.784, 8.544,30.288c0.00,12.64-2.848,22.128-8.512,28.448c-5.68,6.32-13.088,9.488-22.208,9.488
			c-11.36,0.00-21.568-4.992-30.576-15.008l-31.952,4.624l 20.256,107.376l 104.496,0.00 l0.00-36.992 l-74.528,0.00 l-6.352-35.072c 8.848,4.368, 17.872,6.576, 27.088,6.576
			c 17.584,0.00, 32.48-6.384, 44.72-19.136c 12.224-12.752, 18.336-29.312, 18.336-49.648C 327.504,177.584, 322.576,162.432, 312.736,149.12z" />
<glyph unicode="&#x30;" d="M 256.992,223.408c-7.616,0.00-14.032-2.976-19.28-8.928
			c-5.264-5.952-7.888-14.736-7.888-26.352c0.00-12.848, 2.96-22.752, 8.88-29.728c 5.904-6.992, 12.656-10.48, 20.272-10.48
			c 7.312,0.00, 13.424,2.88, 18.304,8.592s 7.312,15.072, 7.312,28.112c0.00,13.408-2.624,23.216-7.872,29.456S 264.88,223.408, 256.992,223.408z M 256.00,432.00
			C 141.12,432.00, 48.00,338.88, 48.00,224.00s 93.12-208.00, 208.00-208.00s 208.00,93.12, 208.00,208.00S 370.88,432.00, 256.00,432.00z M 304.752,134.288c-12.368-12.752-28.288-19.104-47.68-19.104
			c-20.832,0.00-37.952,8.08-51.36,24.256c-13.424,16.176-20.128,42.672-20.128,79.52c0.00,37.776, 7.008,65.008, 20.992,81.696
			c 13.968,16.688, 32.128,25.024, 54.464,25.024c 15.664,0.00, 28.64-4.40, 38.912-13.20c 10.288-8.816, 16.832-21.584, 19.648-38.336l-38.256-4.208
			c-0.944,7.84-3.392,13.648-7.328,17.376c-3.952,3.744-9.072,5.616-15.376,5.616c-8.368,0.00-15.456-3.728-21.232-11.216
			c-5.776-7.472-9.424-23.04-10.928-46.72c 9.84,11.616, 22.096,17.424, 36.752,17.424c 16.512,0.00, 30.656-6.272, 42.432-18.816
			s 17.664-28.752, 17.664-48.608C 323.328,163.904, 317.136,147.008, 304.752,134.288z" />
<glyph unicode="&#x31;" d="M 256.00,432.00C 141.12,432.00, 48.00,338.88, 48.00,224.00s 93.12-208.00, 208.00-208.00s 208.00,93.12, 208.00,208.00S 370.88,432.00, 256.00,432.00z
			 M 326.176,290.752c-11.152-10.992-22.48-26.736-34.00-47.28s-20.304-42.368-26.336-65.504c-6.032-23.12-8.992-43.776-8.912-61.968l-38.00,0.00 
			c 0.64,28.496, 6.512,57.60, 17.616,87.232c 11.072,29.648, 25.872,56.16, 44.40,79.52l-90.016,0.00 l0.00,36.752 l 135.248,0.00 L 326.176,290.752 z" />
<glyph unicode="&#x32;" d="M 259.424,213.408c-9.664,0.00-16.848-3.344-21.584-10.064
			c-4.736-6.704-7.088-13.968-7.088-21.808c0.00-10.976, 2.784-19.52, 8.352-25.664s 12.528-9.216, 20.88-9.216c 8.16,0.00, 14.912,2.976, 20.256,8.88
			s 8.016,14.416, 8.016,25.584c0.00,9.728-2.72,17.552-8.16,23.456C 274.656,210.464, 267.76,213.408, 259.424,213.408z M 258.864,244.672
			c 7.472,0.00, 13.44,2.24, 17.92,6.688c 4.464,4.464, 6.72,10.64, 6.72,18.528c0.00,7.424-2.224,13.36-6.656,17.824
			c-4.432,4.464-10.288,6.688-17.568,6.688c-7.568,0.00-13.584-2.256-18.064-6.752c-4.48-4.512-6.72-10.48-6.72-17.904
			c0.00-7.888, 2.224-14.048, 6.64-18.464C 245.584,246.88, 251.488,244.672, 258.864,244.672z M 256.00,432.00C 141.12,432.00, 48.00,338.88, 48.00,224.00s 93.12-208.00, 208.00-208.00
			s 208.00,93.12, 208.00,208.00S 370.88,432.00, 256.00,432.00z M 309.04,132.816c-12.144-11.936-28.288-17.904-48.416-17.904c-18.752,0.00-34.336,4.944-46.816,14.816
			c-14.704,11.664-22.064,27.632-22.064,47.936c0.00,11.168, 2.768,21.44, 8.32,30.784c 5.536,9.344, 14.272,16.56, 26.192,21.648
			c-10.224,4.304-17.664,10.224-22.288,17.76c-4.656,7.536-6.976,15.776-6.976,24.768c0.00,15.344, 5.36,28.016, 16.096,38.032
			c 10.736,10.00, 26.00,15.008, 45.776,15.008c 19.60,0.00, 34.816-5.008, 45.632-15.008c 10.848-10.016, 16.256-22.688, 16.256-38.032
			c0.00-9.552-2.48-18.032-7.456-25.472c-4.992-7.424-11.968-13.12-20.976-17.04c 11.408-4.608, 20.08-11.328, 26.016-20.16
			c 5.936-8.832, 8.912-19.024, 8.912-30.576C 327.248,160.256, 321.168,144.752, 309.04,132.816z" />
<glyph unicode="&#x33;" d="M 254.88,296.912c-7.344,0.00-13.44-2.88-18.288-8.624
			c-4.848-5.76-7.264-15.184-7.264-28.288c0.00-13.28, 2.64-23.024, 7.904-29.248c 5.264-6.24, 11.856-9.344, 19.744-9.344
			c 7.632,0.00, 14.048,3.008, 19.264,8.992s 7.824,14.784, 7.824,26.384c0.00,12.72-2.944,22.592-8.816,29.616S 262.576,296.912, 254.88,296.912z M 256.00,432.00
			C 141.12,432.00, 48.00,338.88, 48.00,224.00s 93.12-208.00, 208.00-208.00s 208.00,93.12, 208.00,208.00S 370.88,432.00, 256.00,432.00z M 307.408,143.952c-13.936-16.704-32.096-25.04-54.448-25.04
			c-16.112,0.00-29.104,4.32-39.024,12.912c-9.92,8.624-16.288,21.488-19.088,38.608l 38.256,4.24c 0.944-7.808, 3.376-13.60, 7.296-17.36
			c 3.904-3.76, 9.088-5.648, 15.552-5.648c 8.128,0.00, 15.04,3.744, 20.752,11.28c 5.68,7.536, 9.328,23.104, 10.928,46.768
			c-9.952-11.536-22.384-17.296-37.312-17.296c-16.24,0.00-30.256,6.256-42.032,18.752c-11.776,12.512-17.664,28.784-17.664,48.832
			c0.00,20.88, 6.224,37.712, 18.64,50.496c 12.432,12.784, 28.272,19.168, 47.504,19.168c 20.912,0.00, 38.08-8.096, 51.504-24.272
			c 13.408-16.176, 20.112-42.80, 20.112-79.84C 328.336,187.84, 321.36,160.656, 307.408,143.952z" />
<glyph unicode="&#x34;" d="M 267.808,296.352c-3.728,3.04-8.00,4.576-12.816,4.576s-9.104-1.536-12.88-4.576
			c-3.776-3.056-6.704-8.512-8.784-16.384c-2.736-10.224-4.096-27.424-4.096-51.616s 1.216-40.816, 3.664-49.856s 5.552-15.056, 9.264-18.08
			c 3.728-3.008, 8.00-4.48, 12.816-4.48s 9.088,1.52, 12.88,4.56s 6.688,8.512, 8.784,16.384c 2.72,10.128, 4.096,27.28, 4.096,51.472
			s-1.216,40.816-3.68,49.856C 274.608,287.248, 271.536,293.296, 267.808,296.352z M 256.00,432.00C 141.12,432.00, 48.00,338.88, 48.00,224.00s 93.12-208.00, 208.00-208.00s 208.00,93.12, 208.00,208.00
			S 370.88,432.00, 256.00,432.00z M 301.728,144.272c-11.168-14.064-26.752-21.088-46.736-21.088c-20.08,0.00-36.272,7.696-48.56,23.12s-18.432,42.912-18.432,82.464
			c0.00,38.816, 6.752,66.752, 20.272,83.808c 11.168,14.064, 26.752,21.088, 46.736,21.088s 35.616-7.12, 46.88-21.376
			c 13.408-16.88, 20.128-44.848, 20.128-83.952C 322.00,189.344, 315.232,161.312, 301.728,144.272z" />
<glyph unicode="&#x35;" d="M 256.00,432.00C 141.12,432.00, 48.00,338.88, 48.00,224.00s 93.12-208.00, 208.00-208.00s 208.00,93.12, 208.00,208.00S 370.88,432.00, 256.00,432.00z M 256.00,48.00C 158.80,48.00, 80.00,126.80, 80.00,224.00S 158.80,400.00, 256.00,400.00
			s 176.00-78.80, 176.00-176.00S 353.20,48.00, 256.00,48.00z M 234.432,291.664c-10.784,11.824-23.728,17.728-38.896,17.728c-15.52,0.00-28.32-5.376-38.352-16.144
			c-4.048-4.416-7.28-9.616-9.664-15.616c-2.368-6.00-3.568-12.096-3.568-18.256c0.00-12.704, 3.584-23.52, 10.72-32.432
			c 7.152-8.912, 16.464-14.24, 27.952-16.00l 3.984-0.256l 3.44-0.544c 5.296-0.704, 7.952-2.736, 7.952-6.08c0.00-3.536-3.536-9.088-10.608-16.672
			c-7.424-8.112-19.168-16.336-35.248-24.608c-6.72-3.536-10.064-7.936-10.064-13.232c0.00-3.36, 1.136-6.144, 3.44-8.336
			c 2.288-2.208, 5.20-3.296, 8.736-3.296c 8.816,0.00, 20.992,5.104, 36.512,15.344c 18.336,12.00, 32.992,26.592, 43.92,43.808
			c 10.944,17.184, 16.40,34.176, 16.40,50.944c0.00,7.936-1.504,15.824-4.496,23.68C 243.60,279.536, 239.536,286.192, 234.432,291.664z M 360.368,291.664
			c-10.72,11.824-23.568,17.728-38.528,17.728c-15.664,0.00-28.432-5.376-38.288-16.144c-4.064-4.416-7.264-9.664-9.648-15.744
			c-2.384-6.096-3.568-12.128-3.568-18.128c0.00-12.704, 3.52-23.568, 10.544-32.56s 16.288-14.288, 27.712-15.872l 4.224-0.256l 3.152-0.544
			c 5.28-0.704, 7.92-2.736, 7.92-6.08c0.00-3.536-3.44-9.088-10.304-16.672c-7.216-7.76-18.928-15.968-35.104-24.608
			c-6.704-3.536-10.048-7.936-10.048-13.232c0.00-3.36, 1.152-6.144, 3.44-8.336c 2.304-2.208, 5.20-3.296, 8.72-3.296
			c 8.80,0.00, 20.96,5.104, 36.432,15.344c 18.32,12.00, 32.896,26.592, 43.712,43.808c 10.816,17.184, 16.24,34.176, 16.24,50.944
			c0.00,7.936-1.488,15.824-4.48,23.68C 369.536,279.536, 365.488,286.192, 360.368,291.664z" />
<glyph unicode="&#x36;" d="M 256.00,432.00C 141.12,432.00, 48.00,338.88, 48.00,224.00s 93.12-208.00, 208.00-208.00s 208.00,93.12, 208.00,208.00S 370.88,432.00, 256.00,432.00z M 256.00,48.00C 158.80,48.00, 80.00,126.80, 80.00,224.00S 158.80,400.00, 256.00,400.00
			s 176.00-78.80, 176.00-176.00S 353.20,48.00, 256.00,48.00z M 233.472,285.216c 6.704,3.536, 10.048,7.952, 10.048,13.248c0.00,3.344-1.136,6.128-3.424,8.336
			c-2.304,2.208-5.20,3.312-8.72,3.312c-8.816,0.00-20.96-5.12-36.448-15.344c-18.32-12.00-32.88-26.592-43.696-43.792
			c-10.816-17.20-16.24-34.192-16.24-50.96c0.00-7.936, 1.504-15.824, 4.496-23.68c 2.992-7.84, 7.04-14.496, 12.144-19.984
			c 10.736-11.824, 23.584-17.728, 38.544-17.728c 15.664,0.00, 28.432,5.392, 38.288,16.16c 4.048,4.40, 7.248,9.664, 9.648,15.744
			c 2.368,6.096, 3.568,12.128, 3.568,18.128c0.00,12.704-3.52,23.552-10.544,32.56s-16.288,14.288-27.712,15.872l-4.224,0.256l-3.168,0.544
			c-5.264,0.704-7.92,2.736-7.92,6.08c0.00,3.536, 3.44,9.088, 10.32,16.672C 205.60,268.368, 217.28,276.576, 233.472,285.216z M 359.84,285.216
			c 6.72,3.536, 10.064,7.952, 10.064,13.248c0.00,3.344-1.136,6.128-3.44,8.336c-2.288,2.208-5.20,3.312-8.736,3.312
			c-8.816,0.00-20.992-5.12-36.512-15.344c-18.336-12.00-32.976-26.592-43.904-43.792s-16.40-34.192-16.40-50.96c0.00-7.936, 1.504-15.824, 4.496-23.68
			c 3.008-7.84, 7.04-14.496, 12.16-19.984c 10.768-11.824, 23.712-17.728, 38.88-17.728c 15.536,0.00, 28.32,5.392, 38.368,16.16
			c 4.048,4.40, 7.28,9.616, 9.664,15.616c 2.368,6.016, 3.568,12.096, 3.568,18.272c0.00,12.704-3.584,23.504-10.72,32.416
			c-7.152,8.912-16.464,14.24-27.952,16.00l-3.984,0.256l-3.44,0.544c-5.28,0.704-7.936,2.736-7.936,6.08c0.00,3.536, 3.536,9.088, 10.592,16.672
			C 332.016,268.736, 343.76,276.928, 359.84,285.216z" />
<glyph unicode="&#x37;" d="M 438.32,222.208L 242.72,416.464L 64.464,416.464 L 64.048,238.432l 193.248-197.264
			c 12.704-12.704, 33.136-12.88, 45.648-0.368l 135.744,135.76C 451.184,189.056, 451.024,209.504, 438.32,222.208z M 111.712,335.936c0.00,17.664, 14.336,32.00, 32.00,32.00
			s 32.00-14.336, 32.00-32.00c0.00-17.68-14.336-32.00-32.00-32.00S 111.712,318.256, 111.712,335.936z M 285.808,112.768l-124.448,124.448l 11.312,11.312l 124.448-124.448L 285.808,112.768z
			 M 319.744,146.704l-124.448,124.448l 11.328,11.312l 124.432-124.448L 319.744,146.704z M 353.68,180.656l-124.432,124.448l 11.312,11.312l 124.432-124.448
			L 353.68,180.656z" />
<glyph unicode="&#x38;" d="M 462.528,166.784l-148.976-148.976c-12.656-12.656-33.184-12.656-45.84,0.00L 85.088,200.448
	l-45.12,139.664l 32.96,32.96l 63.152-63.152c-1.696-12.16, 1.984-24.912, 11.328-34.256c 15.824-15.824, 41.472-15.824, 57.296,0.00
	c 15.808,15.824, 15.808,41.472,0.00,57.296c-9.344,9.344-22.096,13.008-34.256,11.328L 107.296,407.44L 139.52,439.68l 140.384-44.40L 462.528,212.64
	C 475.184,199.968, 475.184,179.456, 462.528,166.784z M 181.776,298.576c-3.168-3.168-8.288-3.168-11.456,0.00L 44.256,424.64
	c-3.168,3.168-3.168,8.304,0.00,11.456s 8.304,3.168, 11.456,0.00l 126.048-126.048C 184.944,306.88, 184.944,301.744, 181.776,298.576z" />
<glyph unicode="&#x39;" d="M 405.28,322.56l-56.00-96.992c-8.848-15.296-28.40-20.544-43.712-11.696l-13.84,8.00l 16.00,27.696
	l0.00,0.00c 7.648-4.40, 17.44-1.792, 21.84,5.856l 40.00,69.28c 4.416,7.664, 1.792,17.44-5.84,21.856l-55.44,32.00
	c-7.664,4.416-17.44,1.792-21.84-5.856l-40.00-69.28c-4.432-7.664-1.808-17.44, 5.84-21.856l-16.00-27.696l-13.84,8.00
	c-15.312,8.832-20.56,28.40-11.712,43.696l 56.00,96.992c 8.848,15.312, 28.40,20.544, 43.712,11.712l 83.12-48.00C 408.88,357.44, 414.128,337.872, 405.28,322.56
	z M 216.00,154.72c-7.664,4.416-10.288,14.208-5.856,21.856l 64.00,110.848c 4.416,7.664, 14.208,10.288, 21.856,5.856s 10.288-14.208, 5.84-21.856l-64.00-110.848
	C 233.44,152.928, 223.664,150.32, 216.00,154.72z M 204.288,198.416L 204.288,198.416c-7.664,4.416-17.44,1.792-21.856-5.84l-40.00-69.28
	c-4.416-7.664-1.792-17.44, 5.856-21.856l 55.44-32.00c 7.648-4.416, 17.44-1.792, 21.84,5.856l 40.00,69.28c 4.416,7.648, 1.792,17.44-5.84,21.856l0.00,0.00
	l 16.00,27.696l 13.84-8.00c 15.312-8.832, 20.56-28.384, 11.712-43.696l-56.00-96.992c-8.848-15.312-28.40-20.544-43.712-11.712l-83.136,48.00
	c-15.312,8.848-20.56,28.40-11.712,43.712l 56.00,96.992c 8.848,15.312, 28.416,20.56, 43.728,11.712l 13.84-8.00L 204.288,198.416z" />
<glyph unicode="&#x3a;" d="M 225.936,379.92l-120.00-207.84c-6.624-11.488, 15.712-36.784, 15.712-36.784l 144.00,249.408
			C 265.648,384.704, 232.56,391.408, 225.936,379.92z M 264.00,237.856c 11.472-6.624, 26.16-2.688, 32.784,8.784l 64.00,110.848
			C 367.408,368.976, 363.472,383.648, 352.00,390.288c-11.472,6.624-26.16,2.688-32.784-8.784l-64.00-110.848C 248.592,259.168, 252.528,244.48, 264.00,237.856z
			 M 248.00,210.144c-11.488,6.624-26.16,2.688-32.784-8.784l-64.00-110.864C 144.592,79.024, 148.512,64.336, 160.00,57.712
			c 11.472-6.624, 26.16-2.688, 32.784,8.784l 64.00,110.864C 263.408,188.848, 259.472,203.52, 248.00,210.144z M 390.336,312.704l-144.00-249.408
			c0.00,0.00, 33.088-6.704, 39.712,4.784l 120.00,207.84C 412.688,287.408, 390.336,312.704, 390.336,312.704z" />
<glyph unicode="&#x3b;" d="M 80.00,0.00L 80.00,384.00 l 66.672,64.00l 202.672,0.00 L 416.00,384.00l0.00-384.00 L 80.00,0.00 z M 400.00,128.00l0.00,16.00 l0.00,96.00 l0.00,16.00 L 400.00,368.00 L 96.00,368.00 l0.00-112.00 l0.00-16.00 l0.00-96.00 l0.00-16.00 l0.00-112.00 l 304.00,0.00 L 400.00,128.00 z M 384.00,256.00L 112.00,256.00 
	L 112.00,352.00 l 272.00,0.00 L 384.00,256.00 z M 288.00,320.00l-80.00,0.00 l0.00-16.00 l 80.00,0.00 L 288.00,320.00 z M 384.00,144.00L 112.00,144.00 l0.00,96.00 l 272.00,0.00 L 384.00,144.00 z M 288.00,208.00l-80.00,0.00 l0.00-16.00 l 80.00,0.00 L 288.00,208.00 z M 384.00,32.00L 112.00,32.00 l0.00,96.00 l 272.00,0.00 L 384.00,32.00 z M 288.00,96.00l-80.00,0.00 l0.00-16.00 l 80.00,0.00 L 288.00,96.00 z" />
<glyph unicode="&#x3c;" d="M 80.00-16.00L 80.00,384.00 l 66.672,64.00l 202.672,0.00 L 416.00,384.00l0.00-400.00 L 80.00-16.00 z M 96.00,0.00l 304.00,0.00 L 400.00,368.00 L 96.00,368.00 L 96.00,0.00 z M 112.00,176.00l 272.00,0.00 l0.00-160.00 L 112.00,16.00 L 112.00,176.00 z M 208.00,112.00l0.00-16.00 l 16.00,0.00 
	l 48.00,0.00 l 16.00,0.00 l0.00,16.00 l0.00,32.00 l-16.00,0.00 l0.00-32.00 l-48.00,0.00 l0.00,32.00 l-16.00,0.00 L 208.00,112.00 z M 112.00,352.00l 272.00,0.00 l0.00-160.00 L 112.00,192.00 L 112.00,352.00 z M 208.00,272.00l 16.00,0.00 l 48.00,0.00 l 16.00,0.00 l0.00,16.00 l0.00,32.00 l-16.00,0.00 l0.00-32.00 l-48.00,0.00 l0.00,32.00 l-16.00,0.00 L 208.00,272.00 z" />
<glyph unicode="&#x3d;" d="M 432.00-16.00L 80.00-16.00 c-17.664,0.00-32.00,14.336-32.00,32.00L 48.00,368.00 c0.00,17.68, 14.336,32.00, 32.00,32.00l 32.00,0.00 l0.00-16.00 c0.00-26.512, 21.488-48.00, 48.00-48.00
	c 26.496,0.00, 48.00,21.488, 48.00,48.00L 208.00,400.00 l 96.00,0.00 l0.00-16.00 c0.00-26.512, 21.504-48.00, 48.00-48.00s 48.00,21.488, 48.00,48.00L 400.00,400.00 l 32.00,0.00 c 17.664,0.00, 32.00-14.32, 32.00-32.00l0.00-352.00 C 464.00-1.664, 449.664-16.00, 432.00-16.00z M 432.00,288.00L 80.00,288.00 l0.00-272.00 l 352.00,0.00 
	L 432.00,288.00 z M 160.00,208.00L 112.00,208.00 l0.00,48.00 l 48.00,0.00 L 160.00,208.00 z M 160.00,128.00L 112.00,128.00 l0.00,48.00 l 48.00,0.00 L 160.00,128.00 z M 160.00,48.00L 112.00,48.00 l0.00,48.00 l 48.00,0.00 L 160.00,48.00 z M 240.00,208.00l-48.00,0.00 l0.00,48.00 l 48.00,0.00 L 240.00,208.00 z M 240.00,128.00l-48.00,0.00 l0.00,48.00 l 48.00,0.00 L 240.00,128.00 z M 240.00,48.00l-48.00,0.00 l0.00,48.00 l 48.00,0.00 L 240.00,48.00 z M 320.00,208.00l-48.00,0.00 
	l0.00,48.00 l 48.00,0.00 L 320.00,208.00 z M 320.00,128.00l-48.00,0.00 l0.00,48.00 l 48.00,0.00 L 320.00,128.00 z M 320.00,48.00l-48.00,0.00 l0.00,48.00 l 48.00,0.00 L 320.00,48.00 z M 400.00,208.00l-48.00,0.00 l0.00,48.00 l 48.00,0.00 L 400.00,208.00 z M 400.00,128.00l-48.00,0.00 l0.00,48.00 l 48.00,0.00 L 400.00,128.00 z M 400.00,48.00l-48.00,0.00 l0.00,48.00 l 48.00,0.00 L 400.00,48.00 z M 351.504,352.00
	C 334.096,352.00, 320.00,366.112, 320.00,383.504L 320.00,416.496 C 320.00,433.904, 334.096,448.00, 351.504,448.00s 31.504-14.096, 31.504-31.504l0.00-32.992 C 383.008,366.112, 368.912,352.00, 351.504,352.00z
	 M 159.504,352.00C 142.096,352.00, 128.00,366.112, 128.00,383.504L 128.00,416.496 C 128.00,433.904, 142.096,448.00, 159.504,448.00s 31.504-14.096, 31.504-31.504l0.00-32.992 C 191.008,366.112, 176.896,352.00, 159.504,352.00z" />
<glyph unicode="&#x3e;" d="M 448.00,0.00L 64.00,0.00 c-17.664,0.00-32.00,14.336-32.00,32.00L 32.00,368.00 c0.00,17.664, 14.336,32.00, 32.00,32.00l 32.00,0.00 l0.00-16.00 c0.00-26.512, 21.488-48.00, 48.00-48.00
	s 48.00,21.488, 48.00,48.00L 192.00,400.00 l 128.00,0.00 l0.00-16.00 c0.00-26.512, 21.504-48.00, 48.00-48.00s 48.00,21.488, 48.00,48.00L 416.00,400.00 l 32.00,0.00 c 17.664,0.00, 32.00-14.336, 32.00-32.00l0.00-336.00 C 480.00,14.336, 465.664,0.00, 448.00,0.00z M 448.00,288.00L 64.00,288.00 l0.00-256.00 l 384.00,0.00 L 448.00,288.00 z
	 M 209.104,162.736c 3.152,5.024, 4.736,10.336, 4.736,15.888c0.00,12.368-6.656,18.56-19.968,18.56c-11.568,0.00-22.624-4.592-33.184-13.776l0.00,26.064 
	c 11.68,7.568, 24.88,11.344, 39.568,11.344c 13.744,0.00, 24.48-3.456, 32.208-10.352s 11.584-16.24, 11.584-27.984c0.00-15.68-9.408-31.904-28.224-48.656
	l-27.664-24.56l0.00-0.56 l 54.56,0.00 l0.00-24.56 L 154.224,84.144 l0.00,23.056 l 38.528,36.848C 200.496,151.472, 205.952,157.696, 209.104,162.736z M 317.392,109.344
	c 4.224,3.248, 6.336,7.776, 6.336,13.60c0.00,6.00-2.608,10.624-7.824,13.872s-12.384,4.88-21.52,4.88l-12.096,0.00 l0.00,22.688 l 11.152,0.00 
	c 17.504,0.00, 26.256,5.808, 26.256,17.44c0.00,10.944-6.72,16.40-20.16,16.40c-8.992,0.00-17.744-2.912-26.256-8.72l0.00,24.192 
	c 9.44,4.752, 20.432,7.12, 32.992,7.12c 13.744,0.00, 24.448-3.088, 32.112-9.28s 11.488-14.224, 11.488-24.096c0.00-17.568-8.912-28.56-26.72-32.992l0.00-0.464 
	c 9.504-1.184, 16.992-4.64, 22.496-10.352s 8.256-12.736, 8.256-21.04c0.00-12.56-4.592-22.496-13.776-29.808s-21.872-10.976-38.064-10.976
	c-13.872,0.00-25.152,2.256-33.84,6.752l0.00,25.776 c 8.992-6.56, 19.504-9.84, 31.504-9.84C 307.28,104.464, 313.168,106.096, 317.392,109.344z
	 M 367.504,352.00C 350.096,352.00, 336.00,366.096, 336.00,383.504L 336.00,416.496 C 336.00,433.904, 350.096,448.00, 367.504,448.00s 31.504-14.096, 31.504-31.504l0.00-32.992 
	C 399.008,366.096, 384.912,352.00, 367.504,352.00z M 143.504,352.00C 126.096,352.00, 112.00,366.096, 112.00,383.504L 112.00,416.496 C 112.00,433.904, 126.096,448.00, 143.504,448.00s 31.504-14.096, 31.504-31.504l0.00-32.992 
	C 175.008,366.096, 160.896,352.00, 143.504,352.00z" />
<glyph unicode="&#x3f;" d="M 176.00,432.00L 144.00,432.00 l0.00-64.00 l 32.00,0.00 L 176.00,432.00 z M 352.00,352.00l-32.00,0.00 l0.00-32.00 l 32.00,0.00 L 352.00,352.00 z M 176.00,352.00L 144.00,352.00 l0.00-32.00 l 32.00,0.00 L 176.00,352.00 z M 367.008,384.00L 368.00,304.00l-64.00,0.00 L 304.00,384.00 l-112.00,0.00 l0.00-80.00 L 128.00,304.00 L 128.00,384.00 L 80.00,384.00 
			l0.00-384.00 l 336.00,0.00 L 416.00,384.00 L 367.008,384.00 z M 176.00,48.992L 128.00,48.992 l0.00,48.00 l 48.00,0.00 L 176.00,48.992 z M 176.00,112.992L 128.00,112.992 l0.00,48.00 l 48.00,0.00 L 176.00,112.992 z M 176.00,176.992L 128.00,176.992 l0.00,48.00 l 48.00,0.00 L 176.00,176.992 z M 240.00,48.992l-48.00,0.00 l0.00,48.00 l 48.00,0.00 L 240.00,48.992 z
			 M 240.00,112.992l-48.00,0.00 l0.00,48.00 l 48.00,0.00 L 240.00,112.992 z M 240.00,176.992l-48.00,0.00 l0.00,48.00 l 48.00,0.00 L 240.00,176.992 z M 304.00,48.992l-48.00,0.00 l0.00,48.00 l 48.00,0.00 L 304.00,48.992 z M 304.00,112.992l-48.00,0.00 l0.00,48.00 l 48.00,0.00 L 304.00,112.992 z M 304.00,176.992l-48.00,0.00 l0.00,48.00 
			l 48.00,0.00 L 304.00,176.992 z M 368.00,48.992l-48.00,0.00 l0.00,48.00 l 48.00,0.00 L 368.00,48.992 z M 368.00,112.992l-48.00,0.00 l0.00,48.00 l 48.00,0.00 L 368.00,112.992 z M 368.00,176.992l-48.00,0.00 l0.00,48.00 l 48.00,0.00 L 368.00,176.992 z M 352.00,432.00l-32.00,0.00 l0.00-64.00 l 32.00,0.00 L 352.00,432.00 z" />
<glyph unicode="&#x40;" d="M 335.008,415.504L 112.00,415.504 l0.00-383.008 l 160.00,0.00 l0.00,32.00 L 144.00,64.496 L 144.00,383.504 l 160.00,0.00 l0.00-48.00 l 64.00,0.00 l0.00-176.00 l 32.00,0.00 L 400.00,352.496 L 335.008,415.504z
			 M 368.00,127.504l-32.00,0.00 l0.00-32.00 l-32.00,0.00 l0.00-32.00 l 32.00,0.00 l0.00-31.008 l 32.00,0.00 l0.00,32.00 l 32.00,0.00 l0.00,31.008 l-32.00,0.00 L 368.00,127.504 z" />
<glyph unicode="&#x41;" d="M 335.008,415.504L 112.00,415.504 l0.00-383.008 l 160.00,0.00 l0.00,32.00 L 144.00,64.496 L 144.00,383.504 l 160.00,0.00 l0.00-48.00 l 64.00,0.00 l0.00-176.00 l 32.00,0.00 L 400.00,352.496 L 335.008,415.504z
			 M 304.00,79.504l 96.00,0.992l0.00,31.008 l-96.00,0.00 L 304.00,79.504 z" />
<glyph unicode="&#x42;" d="M 176.00,240.00l 16.00,0.00 l0.00,16.00 l-16.00,0.00 L 176.00,240.00 z M 176.00,192.00l 16.00,0.00 l0.00,16.00 l-16.00,0.00 L 176.00,192.00 z M 176.00,288.00l 16.00,0.00 l0.00,16.00 l-16.00,0.00 L 176.00,288.00 z M 176.00,144.00l 16.00,0.00 l0.00,16.00 l-16.00,0.00 L 176.00,144.00 z
			 M 176.00,96.00l 16.00,0.00 l0.00,16.00 l-16.00,0.00 L 176.00,96.00 z M 208.00,192.00l 128.00,0.00 l0.00,16.00 l-128.00,0.00 L 208.00,192.00 z M 208.00,288.00l 128.00,0.00 l0.00,16.00 l-128.00,0.00 L 208.00,288.00 z M 335.008,416.00L 112.00,416.00 l0.00-384.00 l 288.00,0.00 L 400.00,352.00 L 335.008,416.00z M 368.00,64.992L 144.00,64.992 L 144.00,384.00 l 160.00,0.00 l0.00-47.008 l 64.00,0.00 L 368.00,64.992 z
			 M 208.00,144.00l 128.00,0.00 l0.00,16.00 l-128.00,0.00 L 208.00,144.00 z M 208.00,240.00l 128.00,0.00 l0.00,16.00 l-128.00,0.00 L 208.00,240.00 z M 208.00,96.00l 128.00,0.00 l0.00,16.00 l-128.00,0.00 L 208.00,96.00 z" />
<glyph unicode="&#x43;" d="M 271.744,223.248l-128.00,0.00 l0.00-14.496 l 128.00,0.00 L 271.744,223.248 z M 271.744,175.248l-128.00,0.00 l0.00-15.504 l 128.00,0.00 L 271.744,175.248 z
			 M 192.256,415.744l0.00-48.256 L 143.744,367.488 l0.00-48.256 L 96.496,319.232 l0.00-303.008 L 320.00,16.224 l0.00,48.496 l 47.248,0.00 l0.00,47.008 l 48.256,0.00 l0.00,304.00 L 192.256,415.728 z M 304.496,31.744L 112.00,31.744 L 112.00,304.752 l 192.496,0.00 L 304.496,31.744 z
			 M 351.744,79.248L 320.00,79.248 l0.00,240.00 L 159.248,319.248 L 159.248,352.00 l 192.496,0.00 L 351.744,79.248 z M 400.00,127.248l-32.752,0.00 L 367.248,367.504 l-159.504,0.00 L 207.744,400.256 L 400.00,400.256 L 400.00,127.248 z M 271.744,79.504l-128.00,0.00 L 143.744,64.00 l 128.00,0.00 L 271.744,79.504 z
			 M 271.744,127.744l-128.00,0.00 l0.00-15.504 l 128.00,0.00 L 271.744,127.744 z M 271.984,271.744l-128.00,0.00 l0.00-16.00 l 128.00,0.00 L 271.984,271.744 z" />
<glyph unicode="&#x44;" d="M 351.984,416.00l-192.00,0.00 C 142.32,416.00, 128.00,401.664, 128.00,384.00l0.00-320.00 c0.00-17.664, 14.32-32.00, 31.984-32.00l 192.00,0.00 
			C 369.664,32.00, 384.00,46.336, 384.00,64.00L 384.00,384.00 C 384.00,401.664, 369.664,416.00, 351.984,416.00z M 208.00,400.00l 80.00,0.00 l 0.992-16.00L 208.00,384.00 L 208.00,400.00 z M 255.664,56.00c-8.832,0.00-16.00,7.152-16.00,16.00s 7.168,16.00, 16.00,16.00
			c 8.848,0.00, 16.00-7.152, 16.00-16.00S 264.496,56.00, 255.664,56.00z M 351.984,112.00l-192.00,0.00 l 0.336,256.00l 191.664,0.00 L 351.984,112.00 z" />
<glyph unicode="&#x45;" d="M 368.016,416.00l-240.00,0.00 C 110.336,416.00, 96.00,401.664, 96.00,384.00l0.00-320.00 c0.00-17.664, 14.336-32.00, 32.016-32.00l 240.00,0.00 
			C 385.68,32.00, 400.00,46.336, 400.00,64.00L 400.00,384.00 C 400.00,401.664, 385.68,416.00, 368.016,416.00z M 248.00,48.00c-8.832,0.00-15.984,7.152-15.984,16.00s 7.152,16.00, 15.984,16.00
			c 8.848,0.00, 16.016-7.152, 16.016-16.00S 256.848,48.00, 248.00,48.00z M 367.856,96.992L 127.44,96.992 L 127.44,383.584 l 240.416,0.00 L 367.856,96.992 z" />
<glyph unicode="&#x46;" d="M 448.00,416.00L 64.00,416.00 C 46.32,416.00, 32.00,401.664, 32.00,384.00l0.00-320.00 c0.00-17.664, 14.32-32.00, 32.00-32.00l 384.00,0.00 c 17.664,0.00, 32.00,14.336, 32.00,32.00L 480.00,384.00 
			C 480.00,401.664, 465.664,416.00, 448.00,416.00z M 184.992,392.00c 8.832,0.00, 15.984-7.168, 15.984-16.00s-7.152-16.00-15.984-16.00c-8.848,0.00-16.00,7.168-16.00,16.00S 176.16,392.00, 184.992,392.00z
			 M 136.00,392.00c 8.832,0.00, 16.00-7.168, 16.00-16.00s-7.168-16.00-16.00-16.00c-8.848,0.00-16.00,7.168-16.00,16.00S 127.152,392.00, 136.00,392.00z M 87.984,392.00c 8.848,0.00, 16.00-7.168, 16.00-16.00
			s-7.152-16.00-16.00-16.00C 79.152,360.00, 72.00,367.168, 72.00,376.00S 79.152,392.00, 87.984,392.00z M 448.00,64.00L 64.00,64.00 L 64.00,335.664 l 384.00,0.00 L 448.00,64.00 z M 448.00,367.664L 224.00,367.664 l0.00,16.00 l 224.00,0.00 L 448.00,367.664 z" />
<glyph unicode="&#x47;" d="M 272.00,80.992l-48.00,0.00 L 224.00,56.00 L 176.00,48.00l0.00-16.00 l 143.008,0.00 l0.00,15.008 L 272.00,56.00L 272.00,80.992 z M 432.00,416.00L 64.00,416.00 
			C 46.32,416.00, 32.00,401.68, 32.00,384.00l0.00-224.00 C 32.00,142.336, 46.32,128.00, 64.00,128.00l 368.00,0.00 c 17.68,0.00, 32.00,14.336, 32.00,32.00L 464.00,384.00 C 464.00,401.68, 449.68,416.00, 432.00,416.00z M 246.00,152.00
			c-8.832,0.00-16.00,7.168-16.00,16.00c0.00,8.848, 7.168,16.00, 16.00,16.00c 8.848,0.00, 16.00-7.152, 16.00-16.00C 262.00,159.168, 254.832,152.00, 246.00,152.00z M 432.00,208.00L 64.00,208.00 L 64.00,384.00 l 368.00,0.00 L 432.00,208.00 z" />
<glyph unicode="&#x48;" d="M 352.00,416.00L 160.00,416.00 C 142.32,416.00, 128.00,401.664, 128.00,384.00l0.00-320.00 c0.00-17.664, 14.32-32.00, 32.00-32.00l 192.00,0.00 c 17.664,0.00, 32.00,14.336, 32.00,32.00L 384.00,384.00 
			C 384.00,401.664, 369.664,416.00, 352.00,416.00z M 256.00,64.00c-30.944,0.00-56.00,25.072-56.00,56.00c0.00,30.944, 25.056,56.00, 56.00,56.00c 30.928,0.00, 56.00-25.056, 56.00-56.00
			C 312.00,89.072, 286.928,64.00, 256.00,64.00z M 352.00,208.00L 160.00,208.00 l 0.336,176.00L 352.00,384.00 L 352.00,208.00 z M 256.00,152.00c-17.664,0.00-32.00-14.336-32.00-32.00s 14.336-32.00, 32.00-32.00s 32.00,14.336, 32.00,32.00
			S 273.664,152.00, 256.00,152.00z" />
<glyph unicode="&#x49;" d="M 448.24,16.896l-32.784,0.00 L 415.456,0.00 l-48.688,0.00 l0.00,16.896 L 144.24,16.896 L 144.24,0.00 L 95.552,0.00 l 0.016,16.896L 63.76,16.896 
	c-17.568,0.00-31.792,14.24-31.792,31.792L 31.968,351.68 c0.00,17.552, 14.24,31.792, 31.792,31.792l 111.264,0.00 c0.00,0.00, 7.008,9.728, 19.824,18.592L 154.00,442.928l 11.248,11.232
	l 44.08-44.064c 8.384,3.60, 18.096,6.16, 29.28,6.16c 11.888,0.00, 21.968-2.928, 30.56-6.88l 44.784,44.784l 11.232-11.232L 283.36,401.088
	c 11.664-8.592, 17.84-17.632, 17.84-17.632l 147.024,0.00 c 17.568,0.00, 31.792-14.24, 31.792-31.792l0.00-302.992 C 480.032,31.12, 465.792,16.896, 448.24,16.896z
	 M 334.992,319.888c0.00,8.784-7.12,15.888-15.904,15.888L 96.56,335.776 c-8.784,0.00-15.904-7.104-15.904-15.888l0.00-239.424 c0.00-8.784, 7.12-15.888, 15.904-15.888
	l 222.512,0.00 c 8.784,0.00, 15.904,7.104, 15.904,15.888L 334.976,319.888 z M 384.672,64.576l 46.672,0.00 l0.00,15.888 l-46.672,0.00 L 384.672,64.576 z M 384.672,96.368l 46.672,0.00 l0.00,15.872 l-46.672,0.00 
	L 384.672,96.368 z M 384.672,129.152l 46.672,0.00 l0.00,15.888 l-46.672,0.00 L 384.672,129.152 z M 384.672,160.944l 46.672,0.00 l0.00,15.904 l-46.672,0.00 L 384.672,160.944 z M 406.896,335.392
	c-13.152,0.00-23.84-10.672-23.84-23.84s 10.688-23.84, 23.84-23.84c 13.168,0.00, 23.84,10.672, 23.84,23.84S 420.064,335.392, 406.896,335.392z M 406.896,272.00
	c-13.152,0.00-23.84-10.656-23.84-23.824s 10.688-23.84, 23.84-23.84c 13.168,0.00, 23.84,10.672, 23.84,23.84S 420.064,272.00, 406.896,272.00z" />
<glyph unicode="&#x4a;" d="M 448.00,368.00L 207.936,367.728L 208.00,415.008L 80.00,416.00l0.00-48.00 L 48.00,368.00 C 30.336,368.00, 16.00,353.664, 16.00,336.00l0.00-272.00 
			c0.00-17.664, 14.336-32.00, 32.00-32.00l 400.00,0.00 c 17.664,0.00, 32.00,14.336, 32.00,32.00L 480.00,336.00 C 480.00,353.664, 465.664,368.00, 448.00,368.00z M 112.00,384.00l 64.00,0.00 l0.00-48.00 L 112.00,336.00 L 112.00,384.00 z M 192.00,80.672c-61.856,0.00-112.00,50.144-112.00,112.00
			c0.00,61.856, 50.144,112.00, 112.00,112.00c 61.84,0.00, 112.00-50.144, 112.00-112.00C 304.00,130.816, 253.84,80.672, 192.00,80.672z M 408.00,263.664c-17.68,0.00-32.00,14.32-32.00,32.00
			c0.00,17.664, 14.32,32.00, 32.00,32.00c 17.664,0.00, 32.00-14.336, 32.00-32.00C 440.00,278.00, 425.664,263.664, 408.00,263.664z M 192.00,262.00c-39.76,0.00-72.00-32.24-72.00-72.00
			s 32.24-72.00, 72.00-72.00s 72.00,32.24, 72.00,72.00S 231.76,262.00, 192.00,262.00z" />
<glyph unicode="&#x4b;" d="M 448.00,352.00l-95.008,0.00 C 352.992,352.00, 352.00,353.904, 352.00,376.00S 334.096,416.00, 312.00,416.00l-128.00,0.00 
			C 161.904,416.00, 144.00,398.096, 144.00,376.00S 144.992,352.00, 144.992,352.00L 48.00,352.00 c-17.664,0.00-32.00-14.336-32.00-32.00l0.00-256.00 c0.00-17.664, 14.336-32.00, 32.00-32.00l 400.00,0.00 c 17.664,0.00, 32.00,14.336, 32.00,32.00L 480.00,320.00 
			C 480.00,337.664, 465.664,352.00, 448.00,352.00z M 248.72,96.432c-53.024,0.00-96.00,42.976-96.00,96.00c0.00,53.008, 42.976,96.00, 96.00,96.00c 53.008,0.00, 96.00-42.976, 96.00-96.00
			C 344.72,139.408, 301.728,96.432, 248.72,96.432z" />
<glyph unicode="&#x4c;" d="M 432.00,207.248l-80.00,32.048l0.00,64.128 l 80.00,32.064c 8.848,0.00, 16.00-7.184, 16.00-16.032l0.00-96.192 
	C 448.00,214.416, 440.848,207.248, 432.00,207.248z M 280.00,319.472c-39.76,0.00-72.00,32.304-72.00,72.144c0.00,39.84, 32.24,72.144, 72.00,72.144S 352.00,431.456, 352.00,391.616
	C 352.00,351.76, 319.76,319.472, 280.00,319.472z M 136.00,319.472c-39.76,0.00-72.00,32.304-72.00,72.144c0.00,39.84, 32.24,72.144, 72.00,72.144S 208.00,431.456, 208.00,391.616
	C 208.00,351.76, 175.76,319.472, 136.00,319.472z M 336.00,319.472l0.00-144.288 l-89.312,0.00 c-0.832-13.312-6.656-24.784-15.312-31.28l 9.024,0.00 l 63.824-143.936L 288.32-0.032 
	l-21.28,48.00l-42.56,0.00 L 224.48-32.00 l-15.952,0.00 l0.00,79.968 l-43.232,0.00 l-21.616-48.00L 127.76-0.032 l 64.832,143.936l 6.032,0.00 c-8.656,6.496-14.48,17.968-15.312,31.28L 80.00,175.184 l0.00,144.288 l 56.00,0.00 l 144.00,0.00 L 336.00,319.472 z
	 M 208.512,138.944c-0.656,0.16-1.264,0.496-1.904,0.72l-34.112-75.712l 36.016,0.00 L 208.512,138.944 z M 224.464,140.096l0.00-76.16 l 35.472,0.00 l-34.016,76.72
	C 225.456,140.432, 224.976,140.288, 224.464,140.096z" />
<glyph unicode="&#x4d;" d="M 485.36,56.88c-2.048,3.536-8.608,4.624-19.696,3.232
			c-20.40-2.64-35.216,4.016-44.448,20.016c-6.992,12.096-8.80,24.256-5.424,36.48s 13.376,29.664, 29.984,52.352l 10.384,14.464
			c 30.848,42.608, 37.168,79.664, 18.976,111.20c-18.512,32.096-72.00,29.392-110.448,12.896C 333.584,371.664, 268.048,416.00, 192.00,416.00C 85.952,416.00,0.00,330.032,0.00,224.00
			c0.00-106.032, 85.952-192.00, 192.00-192.00c 106.032,0.00, 192.00,85.968, 192.00,192.00c0.00,23.504-4.432,45.936-12.16,66.736c 12.976,4.656, 28.496,8.032, 43.136,8.576
			c 19.232,0.704, 36.64-3.328, 43.552-15.296c 15.408-26.704, 7.968-58.256-22.32-94.608l-6.208-7.456c-35.424-42.512-43.888-79.744-25.456-111.712
			c 7.456-12.896, 19.312-22.096, 35.60-27.632c 16.288-5.52, 30.064-4.992, 41.36,1.536C 487.104,47.376, 488.40,51.632, 485.36,56.88z
			 M 104.00,183.008c-22.096,0.00-40.00,17.904-40.00,40.00c0.00,22.08, 17.904,40.00, 40.00,40.00s 40.00-17.904, 40.00-40.00C 144.00,200.912, 126.096,183.008, 104.00,183.008z
			 M 192.00,95.008c-22.096,0.00-40.00,17.904-40.00,40.00s 17.904,40.00, 40.00,40.00s 40.00-17.904, 40.00-40.00S 214.096,95.008, 192.00,95.008z M 176.32,223.008
			c0.00,8.832, 7.184,16.00, 16.016,16.00s 16.00-7.152, 16.00-16.00c0.00-8.848-7.168-16.00-16.00-16.00S 176.32,214.16, 176.32,223.008z M 192.00,271.008c-22.096,0.00-40.00,17.904-40.00,40.00
			c0.00,22.08, 17.904,40.00, 40.00,40.00s 40.00-17.904, 40.00-40.00C 232.00,288.912, 214.096,271.008, 192.00,271.008z M 280.00,183.008c-22.096,0.00-40.00,17.904-40.00,40.00
			c0.00,22.08, 17.904,40.00, 40.00,40.00s 40.00-17.904, 40.00-40.00C 320.00,200.912, 302.096,183.008, 280.00,183.008z" />
<glyph unicode="&#x4e;" d="M 64.00,384.00l0.00-352.00 l 352.00,0.00 L 416.00,384.00 L 64.00,384.00 z M 128.00,64.00L 96.00,64.00 l0.00,32.00 l 32.00,0.00 L 128.00,64.00 z M 128.00,112.00L 96.00,112.00 l0.00,32.00 l 32.00,0.00 L 128.00,112.00 z M 128.00,160.00L 96.00,160.00 l0.00,32.00 l 32.00,0.00 L 128.00,160.00 z M 128.00,224.00L 96.00,224.00 l0.00,32.00 
			l 32.00,0.00 L 128.00,224.00 z M 128.00,272.00L 96.00,272.00 l0.00,32.00 l 32.00,0.00 L 128.00,272.00 z M 128.00,320.00L 96.00,320.00 L 96.00,352.00 l 32.00,0.00 L 128.00,320.00 z M 320.00,64.00L 160.00,64.00 l0.00,128.00 l 160.00,0.00 L 320.00,64.00 z M 320.00,224.00L 160.00,224.00 L 160.00,352.00 l 160.00,0.00 L 320.00,224.00 z M 384.00,64.00l-32.00,0.00 l0.00,32.00 l 32.00,0.00 L 384.00,64.00 z M 384.00,112.00l-32.00,0.00 l0.00,32.00 l 32.00,0.00 L 384.00,112.00 z M 384.00,160.00l-32.00,0.00 
			l0.00,32.00 l 32.00,0.00 L 384.00,160.00 z M 384.00,224.00l-32.00,0.00 l0.00,32.00 l 32.00,0.00 L 384.00,224.00 z M 384.00,272.00l-32.00,0.00 l0.00,32.00 l 32.00,0.00 L 384.00,272.00 z M 384.00,320.00l-32.00,0.00 L 352.00,352.00 l 32.00,0.00 L 384.00,320.00 z" />
<glyph unicode="&#x4f;" d="M 384.00,208.00c-17.68,0.00-32.00-14.32-32.00-32.00l0.00-64.00 l-80.00,0.00 L 272.00,336.00 l 176.00,0.00 l0.00-128.00 L 384.00,208.00 z M 304.00,320.00l-16.00,0.00 l0.00-32.00 l 16.00,0.00 L 304.00,320.00 z M 304.00,160.00l-16.00,0.00 l0.00-32.00 l 16.00,0.00 L 304.00,160.00 z
	 M 336.00,320.00l-16.00,0.00 l0.00-32.00 l 16.00,0.00 L 336.00,320.00 z M 336.00,160.00l-16.00,0.00 l0.00-32.00 l 16.00,0.00 L 336.00,160.00 z M 368.00,320.00l-16.00,0.00 l0.00-32.00 l 16.00,0.00 L 368.00,320.00 z M 400.00,320.00l-16.00,0.00 l0.00-32.00 l 16.00,0.00 L 400.00,320.00 z M 432.00,320.00l-16.00,0.00 l0.00-32.00 l 16.00,0.00 L 432.00,320.00 z M 64.00,384.00l 208.00,0.00 l0.00-32.00 L 64.00,352.00 L 64.00,384.00 z M 256.00,336.00l0.00-224.00 L 80.00,112.00 L 80.00,336.00 L 256.00,336.00 z
	 M 272.00,64.00L 64.00,64.00 l0.00,32.00 l 208.00,0.00 L 272.00,64.00 z" />
<glyph unicode="&#x50;" d="M 368.00,183.424l0.00,23.888 l-15.936,0.00 l0.00-23.888 c0.00-57.184-47.344-103.552-104.528-103.568l-0.064,0.00 
			c-57.184,0.016-103.536,46.368-103.536,103.568l0.00,23.888 L 128.00,207.312 l0.00-23.888 c0.00-60.208, 44.656-109.504, 102.56-117.792l0.00-48.336 
			c-45.376-3.424-79.664-18.784-79.664-33.024c0.00-0.368, 196.512-0.368, 196.512,0.00c0.00,14.784-37.056,30.656-84.976,33.248l0.00,47.92 
			C 321.296,72.848, 368.00,122.528, 368.00,183.424z M 247.488,96.784c 48.40,0.00, 88.64,39.248, 88.64,87.648l0.00,22.896 L 159.84,207.328 l0.00-22.896 
			C 159.84,136.032, 199.088,96.784, 247.488,96.784z M 336.128,360.40c0.00,48.40-40.24,87.632-88.64,87.632c-48.384,0.00-87.648-39.232-87.648-87.632l0.00-137.152 
			l 176.288,0.00 L 336.128,360.40 z M 280.00,415.808c 4.40,0.00, 8.00-3.584, 8.00-8.00s-3.60-8.00-8.00-8.00c-4.416,0.00-8.00,3.584-8.00,8.00S 275.584,415.808, 280.00,415.808z
			 M 248.00,415.808c 4.40,0.00, 8.00-3.584, 8.00-8.00s-3.60-8.00-8.00-8.00c-4.416,0.00-8.00,3.584-8.00,8.00S 243.584,415.808, 248.00,415.808z M 216.00,415.808
			c 4.40,0.00, 8.00-3.584, 8.00-8.00s-3.60-8.00-8.00-8.00c-4.416,0.00-8.00,3.584-8.00,8.00S 211.584,415.808, 216.00,415.808z M 184.00,239.808
			c-4.416,0.00-8.00,3.584-8.00,8.00s 3.584,8.00, 8.00,8.00c 4.40,0.00, 8.00-3.584, 8.00-8.00S 188.40,239.808, 184.00,239.808z M 184.00,271.808
			c-4.416,0.00-8.00,3.584-8.00,8.00s 3.584,8.00, 8.00,8.00c 4.40,0.00, 8.00-3.584, 8.00-8.00S 188.40,271.808, 184.00,271.808z M 184.00,303.808
			c-4.416,0.00-8.00,3.584-8.00,8.00c0.00,4.416, 3.584,8.00, 8.00,8.00c 4.40,0.00, 8.00-3.584, 8.00-8.00C 192.00,307.392, 188.40,303.808, 184.00,303.808z
			 M 184.00,335.808c-4.416,0.00-8.00,3.584-8.00,8.00s 3.584,8.00, 8.00,8.00c 4.40,0.00, 8.00-3.584, 8.00-8.00S 188.40,335.808, 184.00,335.808z M 200.00,367.808
			c-4.416,0.00-8.00,3.584-8.00,8.00s 3.584,8.00, 8.00,8.00c 4.40,0.00, 8.00-3.584, 8.00-8.00S 204.40,367.808, 200.00,367.808z M 216.00,239.808
			c-4.416,0.00-8.00,3.584-8.00,8.00s 3.584,8.00, 8.00,8.00c 4.40,0.00, 8.00-3.584, 8.00-8.00S 220.40,239.808, 216.00,239.808z M 216.00,271.808
			c-4.416,0.00-8.00,3.584-8.00,8.00s 3.584,8.00, 8.00,8.00c 4.40,0.00, 8.00-3.584, 8.00-8.00S 220.40,271.808, 216.00,271.808z M 216.00,303.808
			c-4.416,0.00-8.00,3.584-8.00,8.00c0.00,4.416, 3.584,8.00, 8.00,8.00c 4.40,0.00, 8.00-3.584, 8.00-8.00C 224.00,307.392, 220.40,303.808, 216.00,303.808z
			 M 216.00,335.808c-4.416,0.00-8.00,3.584-8.00,8.00s 3.584,8.00, 8.00,8.00c 4.40,0.00, 8.00-3.584, 8.00-8.00S 220.40,335.808, 216.00,335.808z M 232.00,367.808
			c-4.416,0.00-8.00,3.584-8.00,8.00s 3.584,8.00, 8.00,8.00c 4.40,0.00, 8.00-3.584, 8.00-8.00S 236.40,367.808, 232.00,367.808z M 248.00,239.808
			c-4.416,0.00-8.00,3.584-8.00,8.00s 3.584,8.00, 8.00,8.00c 4.40,0.00, 8.00-3.584, 8.00-8.00S 252.40,239.808, 248.00,239.808z M 248.00,271.808
			c-4.416,0.00-8.00,3.584-8.00,8.00s 3.584,8.00, 8.00,8.00c 4.40,0.00, 8.00-3.584, 8.00-8.00S 252.40,271.808, 248.00,271.808z M 248.00,303.808
			c-4.416,0.00-8.00,3.584-8.00,8.00c0.00,4.416, 3.584,8.00, 8.00,8.00c 4.40,0.00, 8.00-3.584, 8.00-8.00C 256.00,307.392, 252.40,303.808, 248.00,303.808z
			 M 248.00,335.808c-4.416,0.00-8.00,3.584-8.00,8.00s 3.584,8.00, 8.00,8.00c 4.40,0.00, 8.00-3.584, 8.00-8.00S 252.40,335.808, 248.00,335.808z M 264.00,367.808
			c-4.416,0.00-8.00,3.584-8.00,8.00s 3.584,8.00, 8.00,8.00c 4.40,0.00, 8.00-3.584, 8.00-8.00S 268.40,367.808, 264.00,367.808z M 280.00,239.808
			c-4.416,0.00-8.00,3.584-8.00,8.00s 3.584,8.00, 8.00,8.00c 4.40,0.00, 8.00-3.584, 8.00-8.00S 284.40,239.808, 280.00,239.808z M 280.00,271.808
			c-4.416,0.00-8.00,3.584-8.00,8.00s 3.584,8.00, 8.00,8.00c 4.40,0.00, 8.00-3.584, 8.00-8.00S 284.40,271.808, 280.00,271.808z M 280.00,303.808
			c-4.416,0.00-8.00,3.584-8.00,8.00c0.00,4.416, 3.584,8.00, 8.00,8.00c 4.40,0.00, 8.00-3.584, 8.00-8.00C 288.00,307.392, 284.40,303.808, 280.00,303.808z
			 M 280.00,335.808c-4.416,0.00-8.00,3.584-8.00,8.00s 3.584,8.00, 8.00,8.00c 4.40,0.00, 8.00-3.584, 8.00-8.00S 284.40,335.808, 280.00,335.808z M 296.00,367.808
			c-4.416,0.00-8.00,3.584-8.00,8.00s 3.584,8.00, 8.00,8.00c 4.40,0.00, 8.00-3.584, 8.00-8.00S 300.40,367.808, 296.00,367.808z M 312.00,239.808
			c-4.416,0.00-8.00,3.584-8.00,8.00s 3.584,8.00, 8.00,8.00c 4.40,0.00, 8.00-3.584, 8.00-8.00S 316.40,239.808, 312.00,239.808z M 312.00,271.808
			c-4.416,0.00-8.00,3.584-8.00,8.00s 3.584,8.00, 8.00,8.00c 4.40,0.00, 8.00-3.584, 8.00-8.00S 316.40,271.808, 312.00,271.808z M 312.00,303.808
			c-4.416,0.00-8.00,3.584-8.00,8.00c0.00,4.416, 3.584,8.00, 8.00,8.00c 4.40,0.00, 8.00-3.584, 8.00-8.00C 320.00,307.392, 316.40,303.808, 312.00,303.808z
			 M 312.00,335.808c-4.416,0.00-8.00,3.584-8.00,8.00s 3.584,8.00, 8.00,8.00c 4.40,0.00, 8.00-3.584, 8.00-8.00S 316.40,335.808, 312.00,335.808z" />
<glyph unicode="&#x51;" d="M 262.416,65.424l0.00-47.92 c 47.92-2.592, 84.992-18.464, 84.992-33.248
	c0.00-0.368-196.512-0.368-196.512,0.00c0.00,14.256, 34.304,29.616, 79.664,33.024l0.00,48.336 C 172.656,73.92, 128.00,123.216, 128.00,183.424l0.00,23.888 l 15.936,0.00 l0.00-23.888 
	c0.00-57.184, 46.352-103.552, 103.536-103.568l 0.064,0.00 c 57.184,0.016, 104.528,46.368, 104.528,103.568l0.00,23.888 L 368.00,207.312 l0.00-23.888 
	C 368.00,122.528, 321.296,72.848, 262.416,65.424z M 247.488,96.784c-48.384,0.00-87.648,39.248-87.648,87.648l0.00,22.896 l 176.288,0.00 l0.00-22.896 
	C 336.128,136.032, 295.872,96.784, 247.488,96.784z M 159.84,360.40c0.00,48.40, 39.248,87.632, 87.648,87.632s 88.64-39.232, 88.64-87.632l0.00-137.152 L 159.84,223.248 L 159.84,360.40 z
	" />
<glyph unicode="&#x52;" d="M 262.40,65.024l0.00-47.888 c 47.872-2.576, 84.88-18.416, 84.88-33.20
	c0.00-0.368-196.288-0.368-196.288,0.00c0.00,14.224, 34.272,29.584, 79.568,32.992l0.00,48.288 c-57.824,8.288-102.432,57.552-102.432,117.664l0.00,24.88 l 15.92,0.00 l0.00-24.88 
	c0.00-57.12, 46.304-103.44, 103.424-103.456l 0.064,0.00 c 57.12,0.016, 103.424,46.336, 103.424,103.456l0.00,24.88 l 16.928,0.00 l0.00-24.88 
	C 367.872,122.064, 321.216,72.432, 262.40,65.024z M 248.00,96.72c-48.56,0.00-87.904,39.344-87.904,87.904l0.00,39.632 l 71.92,0.00 l0.00,15.984 l-71.92,0.00 l0.00,15.984 l 71.92,0.00 
	l0.00,15.968 l-71.92,0.00 l0.00,15.984 l 71.92,0.00 L 232.016,304.16 l-71.92,0.00 L 160.096,320.144 l 71.92,0.00 L 232.016,336.128 l-71.92,0.00 L 160.096,361.44 c0.00,48.544, 39.344,86.912, 87.904,86.912
	c 48.544,0.00, 87.904-38.352, 87.904-86.912l0.00-25.312 l-71.936,0.00 l0.00-15.984 l 71.936,0.00 l0.00-15.984 l-71.936,0.00 l0.00-15.984 l 71.936,0.00 l0.00-15.984 l-71.936,0.00 l0.00-15.968 l 71.936,0.00 l0.00-15.984 l-71.936,0.00 l0.00-15.984 
	l 71.936,0.00 l0.00-39.632 C 335.904,136.064, 296.544,96.72, 248.00,96.72z" />
<glyph unicode="&#x53;" d="M 368.88,337.504c 8.912,0.00, 16.128-7.216, 16.128-16.128l-29.232-321.488
	c0.00-8.912-7.216-16.128-16.128-16.128L 172.336-16.24 c-8.912,0.00-16.128,7.216-16.128,16.128L 127.008,321.376c0.00,8.912, 7.216,16.128, 16.128,16.128l 144.16,0.00 
	l 17.056,86.976l 77.424,39.76l-5.568-20.768l-57.472-28.816l-15.008-77.152L 368.88,337.504 z M 280.224,224.624l 64.464,0.00 l-18.144-208.608l-141.088,0.00 l-18.144,208.608
	l 96.464,0.00 l 20.144,96.752l-140.80,0.00 l 29.216-321.488l 167.296,0.00 l 29.232,321.488l-68.512,0.00 L 280.224,224.624z" />
<glyph unicode="&#x54;" d="M 391.392,336.304L 103.888,336.304 l 0.288,30.944l 22.976,0.00 l 48.624,47.92l 145.744,0.00 l 47.632-47.92l 22.976,0.00 
	L 391.392,336.304z M 272.592,383.216l-47.92,0.00 l0.00-15.968 l 47.92,0.00 L 272.592,383.216 z M 365.712,207.52L 311.68,207.52 c-11.92,23.216-35.824,39.264-63.712,39.264
	s-51.792-16.048-63.696-39.264L 131.184,207.52 l-10.336,111.808l 255.568,0.00 L 365.712,207.52z M 208.704,175.584c0.00,22.048, 17.872,39.936, 39.936,39.936
	c 22.048,0.00, 39.92-17.888, 39.92-39.936s-17.872-39.936-39.92-39.936C 226.576,135.648, 208.704,153.536, 208.704,175.584z M 247.968,103.024
	c 28.704,0.00, 53.28,16.944, 64.80,41.264l 46.896,0.00 l-12.192-127.456L 148.816,16.832 l-11.776,127.456l 46.144,0.00 C 194.704,119.968, 219.264,103.024, 247.968,103.024z" />
<glyph unicode="&#x55;" d="M 400.00,337.312L 111.28,337.312 l 0.288,31.072l 23.056,0.00 l 48.832,48.112l 146.368,0.00 l 47.824-48.112l 23.056,0.00 L 400.00,337.312z
	 M 280.704,384.416l-48.128,0.00 l0.00-16.032 l 48.128,0.00 L 280.704,384.416 z M 378.496,256.096L 134.56,256.096 l-6.24,64.16l 256.64,0.00 L 378.496,256.096z M 371.92,112.752L 140.336,112.752 l-12.016,127.312
	l 256.64,0.00 L 371.92,112.752z M 355.888,31.536c0.00-8.848-7.184-16.032-16.048-16.032L 172.432,15.504 c-8.864,0.00-16.048,7.184-16.048,16.032l-6.336,65.168
	l 212.384,0.00 L 355.888,31.536z" />
<glyph unicode="&#x56;" d="M 424.992,351.664l-167.936-147.408l0.00-191.024 L 350.512-32.00L 131.488-32.00 l 93.472,45.216L 224.96,204.256 
	L 55.008,351.664L 314.24,351.664 l 51.888,89.904l 13.952-8.048l-47.248-81.84L 424.992,351.68 z M 385.776,336.56l-61.808-0.24l-19.04-32.992l 43.92,0.00 L 385.776,336.56z
	 M 257.056,238.896c 9.456,0.00, 17.104,7.664, 17.104,17.12c0.00,9.456-7.664,17.12-17.104,17.12s-17.12-7.664-17.12-17.12
	C 239.936,246.544, 247.616,238.896, 257.056,238.896z M 94.24,336.56l 37.232-33.232l 154.864,0.00 l 19.008,32.912L 94.24,336.56z" />
<glyph unicode="&#x57;" d="M 479.744,231.232c-6.048,58.224-65.008,57.888-95.632,56.848
			c 0.144,8.848, 0.24,15.984, 0.24,15.984L 31.92,304.176c0.00,0.00,0.00-48.224,0.00-49.424c0.00-68.496, 39.12-127.744, 96.176-156.944l0.00-17.088 l 160.304,0.00 l0.00,17.088 
			c 16.00,8.192, 30.352,18.944, 43.056,31.376C 410.096,148.00, 492.576,175.152, 479.744,231.232z M 356.00,158.944c 17.968,27.60, 28.576,60.40, 28.576,95.808
			c0.00-0.272, 0.016,0.464, 0.032,1.856c 28.56,0.944, 60.08,3.792, 67.216-24.64C 458.992,200.688, 406.752,175.216, 356.00,158.944z M 141.28,368.16
			c0.00-16.00-26.24-33.04-26.24-33.04s 51.424,9.184, 51.424,33.184s-50.992,8.00-50.992,26.00s 25.232,35.04, 25.232,35.04S 92.304,419.152, 92.304,394.16
			S 141.28,384.16, 141.28,368.16z M 221.28,352.16c0.00-16.00-26.24-33.04-26.24-33.04s 51.424,9.184, 51.424,33.184s-50.992,8.00-50.992,26.00
			s 25.232,35.04, 25.232,35.04s-48.416-10.192-48.416-35.184S 221.28,368.16, 221.28,352.16z M 285.28,368.16c0.00-16.00-26.24-33.04-26.24-33.04
			s 51.424,9.184, 51.424,33.184s-50.992,8.00-50.992,26.00s 25.232,35.04, 25.232,35.04s-48.416-10.192-48.416-35.184S 285.28,384.16, 285.28,368.16z
			 M 30.928,65.152c0.00-22.096, 78.80-40.00, 176.00-40.00s 176.00,17.904, 176.00,40.00C 382.928,64.688, 30.928,64.688, 30.928,65.152z" />
<glyph unicode="&#x58;" d="M 412.176,79.92l-43.584,0.00 l0.00-34.624 c0.00-24.736-22.048-44.768-46.784-44.768L 156.88,0.528 
	c-24.736,0.00-44.784,20.032-44.784,44.768l0.00,241.60 l 47.968,0.00 l0.00-238.48 l 31.808,0.00 l 0.032,238.48c 8.544-6.16, 21.344-10.736, 32.128-13.168l0.00-225.328 l 31.808,0.00 L 255.84,272.80 
	c 11.92,1.968, 22.848,6.448, 32.256,12.912l0.00-237.312 l 31.808,0.00 L 319.904,286.896 l 47.68,0.00 l 44.576,0.00 c 19.776,0.00, 35.824-16.032, 35.824-35.824l0.00-135.312 
	C 448.00,95.968, 431.952,79.92, 412.176,79.92z M 415.856,255.84l-47.28,0.00 l0.00-143.76 l 47.28,0.00 L 415.856,255.84 z M 339.552,301.728c-15.664,0.00-29.808,6.256-40.272,16.336
	c-12.992-18.352-34.272-30.432-58.448-30.432c-23.312,0.00-43.808,11.312-56.912,28.544c-10.368-9.584-24.128-15.568-39.36-15.568
	c-28.08,0.00-51.504,19.888-56.992,46.336C 79.024,352.544, 73.376,362.176, 73.376,373.136c0.00,17.312, 14.032,31.344, 31.344,31.344
	c 1.28,0.00, 2.512-0.224, 3.744-0.368c 9.68,7.696, 21.744,12.56, 35.024,12.816c 5.968,17.696, 22.528,30.544, 42.256,30.544
	c 15.184,0.00, 28.544-7.60, 36.656-19.152c 5.888,1.60, 12.016,2.592, 18.416,2.592c 6.688,0.00, 13.056-1.12, 19.184-2.864
	c 8.08,11.712, 21.568,19.424, 36.864,19.424c 19.312,0.00, 35.616-12.288, 41.904-29.408c 0.272,0.00, 0.496,0.08, 0.768,0.08
	c 32.16,0.00, 58.224-26.064, 58.224-58.208S 371.696,301.728, 339.552,301.728z" />
<glyph unicode="&#x59;" d="M 332.864,308.128c 23.168,57.92-28.624,67.472-28.624,66.784
			c 16.352,40.896-16.352,68.16-46.336,68.16s-28.624-13.648-28.624-13.648s 16.352,3.408, 16.352-9.536c0.00-12.96-15.008-12.272-29.984-27.264
			c-15.008-14.992-7.84-12.96-8.864-12.96c 31.168,2.048, 49.408-30.16, 83.824-18.384c-34.08-17.04-42.256,10.048-79.056,11.408
			c-4.768,0.00-32.032,5.28-32.032-46.848c 39.872-4.608, 57.248-32.032, 111.088-25.904c-60.656-22.48-136.64,70.544-147.20-31.344
			c0.00-21.808, 16.336-32.768, 16.336-32.768s 188.784,0.00, 188.112,0.00C 385.328,252.176, 366.944,311.536, 332.864,308.128z M 257.152-16.00L 342.40,225.104L 170.032,225.104 
			L 257.152-16.00z" />
<glyph unicode="&#x5a;" d="M 408.00,336.00c-4.72,0.00-9.28-0.592-13.712-1.552c-1.968,29.136-25.984,52.224-55.616,52.224
			c-6.64,0.00-12.928-1.36-18.832-3.488C 301.44,412.432, 269.088,432.00, 232.00,432.00c-56.352,0.00-101.968-44.912-103.68-100.848C 120.816,334.24, 112.624,336.00, 104.00,336.00
			c-35.344,0.00-64.00-28.656-64.00-64.00c0.00-34.432, 27.248-62.304, 61.328-63.712l 25.664,25.664L 152.944,208.00l 12.128,0.00 l 25.936,25.952L 216.944,208.00l 12.128,0.00 l 25.936,25.952
			L 280.944,208.00l 12.128,0.00 l 25.936,25.952L 344.944,208.00l 12.128,0.00 l 25.936,25.952l 25.856-25.856C 443.792,208.56, 472.00,236.944, 472.00,272.00
			C 472.00,307.344, 443.344,336.00, 408.00,336.00z M 384.00,214.944L 361.056,192.00l-20.128,0.00 l-21.936,21.936L 297.056,192.00l-20.128,0.00 l-21.936,21.936L 233.056,192.00l-20.128,0.00 
			l-21.936,21.936L 169.056,192.00L 148.944,192.00 l-21.936,21.936L 105.056,192.00L 104.00,192.00 l 42.40-176.00l 218.00,0.00 L 408.00,192.00l-1.056,0.00 L 384.00,214.944z M 184.00,32.00l-33.328,144.00l 16.00,0.00 l 33.328-144.00
			L 184.00,32.00 z M 216.00,32.00l-16.992,144.00l 16.00,0.00 l 16.992-144.00L 216.00,32.00 z M 264.00,32.00l-16.00,0.00 l0.00,144.00 l 16.00,0.00 L 264.00,32.00 z M 280.00,32.00l 16.992,144.00l 16.00,0.00 L 296.00,32.00L 280.00,32.00 z M 328.00,32.00l-16.00,0.00 l 32.992,144.00l 16.00,0.00 L 328.00,32.00z
			" />
<glyph unicode="&#x5b;" d="M 345.60,352.00l-176.00,0.00 L 64.00,208.00l0.00-80.00 c0.00-17.664, 14.336-32.00, 32.00-32.00l 320.00,0.00 c 17.664,0.00, 32.00,14.336, 32.00,32.00l0.00,80.00 L 345.60,352.00z
			 M 359.44,207.632l-32.832-48.032l-137.408,0.32l-35.232,47.904l-65.376,0.384L 179.20,335.792L 336.00,335.792 l 89.60-127.60L 359.44,207.632z" />
<glyph unicode="&#x5c;" d="M 345.60,352.00l-176.00,0.00 L 64.00,208.00l0.00-80.00 c0.00-17.664, 14.336-32.00, 32.00-32.00l 320.00,0.00 c 17.664,0.00, 32.00,14.336, 32.00,32.00l0.00,80.00 L 345.60,352.00z
			 M 359.44,207.632l-32.832-48.032l-137.408,0.32l-35.232,47.904l-65.376,0.384l 90.592,127.60L 336.00,335.808 l 89.60-127.60L 359.44,207.632z M 278.00,304.00
			c0.00,8.832-5.168,16.00-14.00,16.00c-8.848,0.00-15.008-7.168-15.008-16.00l0.00-63.008 L 210.00,240.00l 54.00-60.992L 316.992,240.00l-39.008,0.992L 277.984,304.00 z" />
<glyph unicode="&#x5d;" d="M 345.60,352.00l-176.00,0.00 L 64.00,208.00l0.00-80.00 c0.00-17.664, 14.336-32.00, 32.00-32.00l 320.00,0.00 c 17.664,0.00, 32.00,14.336, 32.00,32.00l0.00,80.00 L 345.60,352.00z
			 M 359.44,207.648l-32.832-48.048l-137.424,0.32l-35.216,47.92l-65.376,0.368l 90.592,127.60L 336.00,335.808 l 89.60-127.60L 359.44,207.648z M 210.00,256.00
			l 39.008-0.992L 249.008,192.00 c0.00-8.848, 6.16-16.00, 15.008-16.00c 8.832,0.00, 14.00,7.152, 14.00,16.00l0.00,63.008 L 316.992,256.00L 264.00,316.992L 210.00,256.00z" />
<glyph unicode="&#x5e;" d="M 345.60,352.00l-176.00,0.00 L 64.00,192.00l0.00-80.00 c0.00-17.664, 14.336-32.00, 32.00-32.00l 320.00,0.00 c 17.664,0.00, 32.00,14.336, 32.00,32.00l0.00,80.00 L 345.60,352.00z
			 M 359.44,191.632l-32.832-64.032l-137.424,0.32l-35.216,63.92l-65.376,0.368l 90.592,143.60L 336.00,335.808 l 89.60-143.60L 359.44,191.632z M 192.00,144.00l 128.00,0.00 l0.00,16.00 l-128.00,0.00 L 192.00,144.00 z
			 M 189.328,320.048L 118.672,208.00l 278.656,0.00 l-72.00,112.048L 189.328,320.048 z M 176.00,176.00l 160.00,0.00 l0.00,16.00 L 176.00,192.00 L 176.00,176.00 z" />
<glyph unicode="&#x5f;" d="M 256.00,432.00C 141.12,432.00, 48.00,338.88, 48.00,224.00s 93.12-208.00, 208.00-208.00s 208.00,93.12, 208.00,208.00S 370.88,432.00, 256.00,432.00z
	 M 372.128,283.088l-151.776-151.76c-3.808-3.792-9.968-3.792-13.776,0.00l-3.056,3.056l-0.016-0.016L 120.00,218.464
	c-3.808,3.808-3.808,9.984,0.00,13.792l 20.704,20.688c 3.808,3.808, 9.984,3.808, 13.792,0.00l 59.024-59.456l 124.096,124.096
	c 3.808,3.808, 9.984,3.808, 13.792,0.00l 20.704-20.704C 375.936,293.088, 375.936,286.912, 372.128,283.088z" />
<glyph unicode="&#x60;" d="M 349.12,271.52l-16.032,16.032c-2.96,2.96-7.744,2.96-10.688,0.00l-96.224-96.208l-45.744,46.112c-2.976,2.96-7.744,2.96-10.72,0.00
		l-16.032-16.048c-2.96-2.96-2.96-7.744,0.00-10.688l 67.088-67.568c 2.96-2.944, 7.744-2.944, 10.688,0.00l 117.664,117.664
		C 352.096,263.776, 352.096,268.56, 349.12,271.52zM 256.00,432.00C 141.12,432.00, 48.00,338.88, 48.00,224.00s 93.12-208.00, 208.00-208.00s 208.00,93.12, 208.00,208.00S 370.88,432.00, 256.00,432.00z M 256.00,64.00c-88.352,0.00-160.00,71.648-160.00,160.00
		c0.00,88.368, 71.648,160.00, 160.00,160.00c 88.368,0.00, 160.00-71.632, 160.00-160.00C 416.00,135.648, 344.368,64.00, 256.00,64.00z" />
<glyph unicode="&#x61;" d="M 256.00,16.00C 141.12,16.00, 48.00,109.12, 48.00,224.00S 141.12,432.00, 256.00,432.00s 208.00-93.12, 208.00-208.00S 370.88,16.00, 256.00,16.00z
	 M 351.376,284.656c 3.904,3.904, 3.904,10.256,0.00,14.16l-21.248,21.232c-3.904,3.904-10.256,3.904-14.16,0.00l-60.176-60.176l-60.176,60.176
	c-3.904,3.904-10.256,3.904-14.16,0.00l-21.248-21.232c-3.904-3.904-3.904-10.256,0.00-14.16l 60.192-60.192l-60.192-60.16
	c-3.904-3.904-3.904-10.256,0.00-14.16l 21.248-21.248c 3.904-3.904, 10.256-3.904, 14.16,0.00l 60.176,60.192l 60.176-60.192
	c 3.904-3.904, 10.256-3.904, 14.16,0.00l 21.248,21.248c 3.904,3.904, 3.904,10.256,0.00,14.16l-60.192,60.16L 351.376,284.656z" />
<glyph unicode="&#x62;" d="M 256.00,16.00C 141.12,16.00, 48.00,109.12, 48.00,224.00S 141.12,432.00, 256.00,432.00s 208.00-93.12, 208.00-208.00S 370.88,16.00, 256.00,16.00z M 256.00,384.00
	C 167.648,384.00, 96.00,312.352, 96.00,224.00s 71.648-160.00, 160.00-160.00c 88.368,0.00, 160.00,71.648, 160.00,160.00S 344.368,384.00, 256.00,384.00z M 328.592,167.44l-16.224-16.224
	c-2.976-2.976-7.808-2.976-10.80,0.00l-45.92,45.92l-45.92-45.92c-2.992-2.976-7.808-2.976-10.80,0.00l-16.224,16.224
	c-2.976,2.976-2.976,7.808,0.00,10.80l 45.936,45.904l-45.936,45.92c-2.976,2.992-2.976,7.824,0.00,10.816l 16.224,16.208
	c 2.992,2.992, 7.808,2.992, 10.80,0.00l 45.92-45.92l 45.92,45.92c 2.992,2.992, 7.824,2.992, 10.80,0.00l 16.224-16.208
	c 2.976-2.992, 2.976-7.824,0.00-10.816l-45.936-45.92l 45.936-45.904C 331.568,175.248, 331.568,170.40, 328.592,167.44z" />
<glyph unicode="&#x63;" d="M 248.00,8.00c-114.88,0.00-208.00,93.12-208.00,208.00s 93.12,208.00, 208.00,208.00s 208.00-93.12, 208.00-208.00
	S 362.88,8.00, 248.00,8.00z M 351.008,224.992c0.00,8.832-7.168,16.00-16.00,16.00l-64.00,0.00 l0.00,64.00 c0.00,8.832-7.152,16.00-16.00,16.00l-16.00,0.00 c-8.848,0.00-16.00-7.168-16.00-16.00l0.00-64.00 l-64.00,0.00 
	c-8.848,0.00-16.00-7.168-16.00-16.00l0.00-16.00 c0.00-8.848, 7.152-16.00, 16.00-16.00l 64.00,0.00 l0.00-64.00 c0.00-8.848, 7.152-16.00, 16.00-16.00l 16.00,0.00 c 8.848,0.00, 16.00,7.152, 16.00,16.00l0.00,64.00 l 64.00,0.00 c 8.832,0.00, 16.00,7.152, 16.00,16.00L 351.008,224.992 z" />
<glyph unicode="&#x64;" d="M 256.00,16.00C 141.12,16.00, 48.00,109.12, 48.00,224.00S 141.12,432.00, 256.00,432.00s 208.00-93.12, 208.00-208.00S 370.88,16.00, 256.00,16.00z M 256.00,384.00
	C 167.648,384.00, 96.00,312.368, 96.00,224.00c0.00-88.352, 71.648-160.00, 160.00-160.00c 88.368,0.00, 160.00,71.648, 160.00,160.00C 416.00,312.368, 344.368,384.00, 256.00,384.00z M 319.808,208.00l-48.00,0.00 l0.00-48.00 
	c0.00-8.848-7.168-16.00-16.00-16.00c-8.848,0.00-16.00,7.152-16.00,16.00l0.00,48.00 l-48.00,0.00 c-8.848,0.00-16.00,7.168-16.00,16.00c0.00,8.832, 7.152,16.00, 16.00,16.00l 48.00,0.00 l0.00,48.00 c0.00,8.848, 7.152,16.00, 16.00,16.00
	c 8.832,0.00, 16.00-7.152, 16.00-16.00l0.00-48.00 l 48.00,0.00 c 8.832,0.00, 16.00-7.168, 16.00-16.00C 335.808,215.168, 328.64,208.00, 319.808,208.00z" />
<glyph unicode="&#x65;" d="M 248.00,424.00c-114.88,0.00-208.00-93.12-208.00-208.00s 93.12-208.00, 208.00-208.00c 114.88,0.00, 208.00,93.12, 208.00,208.00
			S 362.88,424.00, 248.00,424.00z M 352.00,210.00c0.00-8.848-7.168-16.00-16.00-16.00L 160.00,194.00 c-8.848,0.00-16.00,7.152-16.00,16.00l0.00,16.00 c0.00,8.832, 7.152,16.00, 16.00,16.00l 176.00,0.00 c 8.832,0.00, 16.00-7.168, 16.00-16.00
			L 352.00,210.00 z" />
<glyph unicode="&#x66;" d="M 256.00,432.00C 141.12,432.00, 48.00,338.88, 48.00,224.00s 93.12-208.00, 208.00-208.00s 208.00,93.12, 208.00,208.00S 370.88,432.00, 256.00,432.00z M 256.00,64.00
			c-88.352,0.00-160.00,71.648-160.00,160.00c0.00,88.368, 71.648,160.00, 160.00,160.00c 88.368,0.00, 160.00-71.632, 160.00-160.00C 416.00,135.648, 344.368,64.00, 256.00,64.00z M 315.808,240.00l-128.00,0.00 
			c-8.848,0.00-16.00-7.168-16.00-16.00c0.00-8.848, 7.152-16.00, 16.00-16.00l 128.00,0.00 c 8.848,0.00, 16.00,7.152, 16.00,16.00C 331.808,232.832, 324.656,240.00, 315.808,240.00z" />
<glyph unicode="&#x67;" d="M 248.00,424.00c-114.88,0.00-208.00-93.12-208.00-208.00s 93.12-208.00, 208.00-208.00s 208.00,93.12, 208.00,208.00
			S 362.88,424.00, 248.00,424.00z M 248.00,98.00c-13.264,0.00-24.00,10.752-24.00,24.00s 10.736,24.00, 24.00,24.00c 13.248,0.00, 24.00-10.752, 24.00-24.00
			S 261.248,98.00, 248.00,98.00z M 272.00,202.00c0.00-13.248-10.752-24.00-24.00-24.00c-13.264,0.00-24.00,10.752-24.00,24.00l0.00,112.00 c0.00,13.264, 10.736,24.00, 24.00,24.00
			c 13.248,0.00, 24.00-10.736, 24.00-24.00L 272.00,202.00 z" />
<glyph unicode="&#x68;" d="M 248.00,432.00C 128.704,432.00, 32.00,335.296, 32.00,216.00S 128.704,0.00, 248.00,0.00S 464.00,96.704, 464.00,216.00
			S 367.296,432.00, 248.00,432.00z M 248.00,48.00C 155.216,48.00, 80.00,123.216, 80.00,216.00S 155.216,384.00, 248.00,384.00S 416.00,308.784, 416.00,216.00S 340.784,48.00, 248.00,48.00z M 248.00,320.00
			c-13.248,0.00-24.00-10.736-24.00-24.00l0.00-80.992 c0.00-13.248, 10.752-24.00, 24.00-24.00s 24.00,10.752, 24.00,24.00L 272.00,296.00 C 272.00,309.264, 261.248,320.00, 248.00,320.00z M 248.00,160.00
			c-13.248,0.00-24.00-10.752-24.00-24.00s 10.752-24.00, 24.00-24.00s 24.00,10.752, 24.00,24.00S 261.248,160.00, 248.00,160.00z" />
<glyph unicode="&#x69;" d="M 415.92,174.912l-21.184,0.00 c-3.44-12.464-8.368-24.288-14.688-35.248l 19.584-19.568
	c 12.528-12.528, 12.528-32.848,0.00-45.376l-11.344-11.344c-12.528-12.528-32.848-12.528-45.376,0.00L 323.20,83.072c-10.928-6.224-22.704-11.072-35.104-14.448
	l0.00-20.544 c0.00-17.712-14.352-32.08-32.08-32.08l-16.032,0.00 c-17.712,0.00-32.096,14.352-32.096,32.08l0.00,20.544 c-12.384,3.376-24.176,8.24-35.104,14.448
	l-19.696-19.696c-12.512-12.528-32.832-12.528-45.36,0.00L 96.368,74.72c-12.528,12.528-12.528,32.848,0.00,45.376l 19.584,19.568
	c-6.32,10.976-11.248,22.784-14.704,35.248L 80.08,174.912 C 62.352,174.912, 48.00,189.264, 48.00,206.976l0.00,16.048 c0.00,17.712, 14.352,32.08, 32.08,32.08l 20.928,0.00 
	C 104.32,267.44, 109.056,279.184, 115.20,290.08l-18.832,18.816c-12.528,12.528-12.528,32.848,0.00,45.376l 11.344,11.328c 12.528,12.528, 32.848,12.528, 45.36,0.00
	l 18.448-18.448c 11.296,6.576, 23.488,11.696, 36.352,15.20L 207.872,383.92 C 207.888,401.648, 222.272,416.00, 239.984,416.00l 16.032,0.00 c 17.712,0.00, 32.08-14.352, 32.08-32.08
	l0.00-21.552 c 12.896-3.52, 25.072-8.64, 36.352-15.216l 18.448,18.448c 12.528,12.528, 32.848,12.528, 45.376,0.00l 11.344-11.328
	c 12.528-12.528, 12.528-32.848,0.00-45.376L 380.80,290.08c 6.144-10.896, 10.88-22.64, 14.208-34.992l 20.928,0.00 c 17.712,0.00, 32.08-14.368, 32.08-32.08l0.00-16.048 
	C 448.00,189.264, 433.648,174.912, 415.92,174.912z M 248.00,302.72c-48.72,0.00-88.224-39.504-88.224-88.224s 39.504-88.224, 88.224-88.224
	s 88.224,39.504, 88.224,88.224S 296.72,302.72, 248.00,302.72z M 248.00,175.408c-22.144,0.00-40.112,17.936-40.112,40.096c0.00,22.144, 17.968,40.096, 40.112,40.096
	s 40.096-17.952, 40.096-40.096C 288.096,193.344, 270.144,175.408, 248.00,175.408z" />
<glyph unicode="&#x6a;" d="M 340.288,127.376l 11.344,11.344c 12.528,12.528, 12.528,32.848,0.00,45.376l-19.584,19.568
			c 6.304,10.976, 11.248,22.784, 14.688,35.248l 21.184,0.00 c 17.712,0.00, 32.08,14.368, 32.08,32.08l0.00,16.032 c0.00,17.712-14.352,32.08-32.08,32.08l-20.928,0.00 
			C 343.664,331.44, 338.944,343.184, 332.80,354.08l 18.832,18.816c 12.528,12.528, 12.528,32.848,0.00,45.376l-11.344,11.328
			c-12.528,12.528-32.848,12.528-45.376,0.00l-18.448-18.448c-11.28,6.576-23.472,11.696-36.352,15.216L 240.112,447.92 C 240.096,465.648, 225.728,480.00, 208.016,480.00
			l-16.032,0.00 c-17.712,0.00-32.096-14.352-32.096-32.08l0.00-21.552 c-12.88-3.52-25.056-8.64-36.352-15.216L 105.072,429.616
			c-12.512,12.528-32.832,12.528-45.36,0.00L 48.368,418.288c-12.528-12.528-12.528-32.848,0.00-45.376L 67.184,354.08c-6.128-10.896-10.88-22.64-14.192-34.992
			L 32.08,319.088 C 14.352,319.104,0.00,304.736,0.00,287.008l0.00-16.032 c0.00-17.712, 14.352-32.08, 32.08-32.08l 21.168,0.00 c 3.456-12.464, 8.384-24.272, 14.704-35.248
			l-19.584-19.568c-12.528-12.528-12.528-32.848,0.00-45.376l 11.344-11.344c 12.528-12.528, 32.848-12.528, 45.36,0.00l 19.696,19.696
			c 10.944-6.224, 22.704-11.072, 35.104-14.448l0.00-20.544 c0.00-17.696, 14.368-32.08, 32.096-32.08l 16.032,0.00 c 17.712,0.00, 32.08,14.368, 32.08,32.08l0.00,20.544 
			c 12.40,3.376, 24.192,8.24, 35.104,14.448l 19.696-19.696C 307.44,114.848, 327.744,114.848, 340.288,127.376z M 200.00,190.288
			c-48.72,0.00-88.224,39.488-88.224,88.224c0.00,48.72, 39.504,88.224, 88.224,88.224s 88.224-39.504, 88.224-88.224
			C 288.224,229.776, 248.72,190.288, 200.00,190.288z M 200.00,319.60c-22.16,0.00-40.112-17.952-40.112-40.096s 17.952-40.096, 40.112-40.096
			c 22.144,0.00, 40.096,17.952, 40.096,40.096S 222.144,319.60, 200.00,319.60z M 400.992,18.208c-10.752,0.00-19.456-8.704-19.456-19.456
			c0.00-10.736, 8.704-19.44, 19.456-19.44c 10.736,0.00, 19.456,8.704, 19.456,19.44C 420.448,9.504, 411.728,18.208, 400.992,18.208z M 482.432,17.968
			l-10.144,0.00 c-1.616,5.984-3.92,11.68-6.896,16.976l 9.12,9.12c 6.08,6.08, 6.08,15.936,0.00,22.00l-5.504,5.504c-6.08,6.08-15.92,6.08-22.00,0.00
			l-8.96-8.944c-5.472,3.184-11.392,5.664-17.632,7.376l0.00,10.432 c0.00,8.592-6.976,15.568-15.568,15.568l-7.776,0.00 
			c-8.592,0.00-15.568-6.976-15.568-15.568l0.00-10.432 c-6.256-1.712-12.16-4.192-17.632-7.376l-8.96,8.944c-6.08,6.08-15.936,6.08-22.00,0.00
			l-5.504-5.504c-6.08-6.064-6.08-15.92,0.00-22.00l 9.12-9.12c-2.992-5.28-5.28-10.992-6.896-16.976l-10.144,0.00 
			c-8.592,0.00-15.568-6.976-15.568-15.568l0.00-7.776 c0.00-8.592, 6.976-15.568, 15.568-15.568l 10.272,0.00 c 1.664-6.032, 4.064-11.76, 7.12-17.088
			l-9.488-9.488c-6.08-6.08-6.08-15.92,0.00-22.016l 5.504-5.504c 6.064-6.064, 15.92-6.064, 22.00,0.00l 9.552,9.568
			c 5.312-3.008, 11.008-5.376, 17.024-7.008l0.00-9.968 c0.00-8.592, 6.976-15.568, 15.568-15.568l 7.776,0.00 c 8.592,0.00, 15.568,6.976, 15.568,15.568l0.00,9.968 
			c 6.016,1.632, 11.712,3.984, 17.008,7.008l 9.568-9.568c 6.08-6.064, 15.92-6.064, 22.00,0.00l 5.504,5.504c 6.08,6.096, 6.08,15.936,0.00,22.016
			l-9.488,9.488c 3.04,5.328, 5.456,11.056, 7.12,17.088l 10.272,0.00 c 8.592,0.00, 15.568,6.976, 15.568,15.568L 497.936,2.40 
			C 498.00,11.008, 491.024,17.968, 482.432,17.968z M 400.992-44.512c-23.632,0.00-42.784,19.152-42.784,42.80c0.00,23.632, 19.152,42.784, 42.784,42.784
			s 42.784-19.152, 42.784-42.784C 443.776-25.36, 424.624-44.512, 400.992-44.512z" />
<glyph unicode="&#x6b;" d="M 425.168,248.00L 456.00,248.00 l0.00-48.00 l-30.832,0.00 c-2.096-15.296-5.984-30.016-11.744-43.792l 26.704-15.424
	l-24.00-41.568l-27.168,15.68c-9.328-11.776-20.16-22.272-32.176-31.328l 16.00-27.696l-41.568-24.00l-16.336,28.272
	c-13.584-5.296-27.92-8.992-42.896-10.768L 271.984,16.00 l-48.00,0.00 l0.00,34.288 c-14.592,2.256-28.656,6.096-41.824,11.696l-17.392-30.112l-41.568,24.00l 17.808,30.848
	c-11.152,8.944-21.104,19.248-29.792,30.608l-31.376-18.112l-24.00,41.568l 31.664,18.288c-5.136,12.976-8.736,26.688-10.688,40.944L 40.00,200.016 l0.00,48.00 l 36.832,0.00 
	c 1.952,14.272, 5.552,27.984, 10.688,40.944l-31.664,18.288l 24.00,41.568l 31.376-18.112c 8.688,11.36, 18.64,21.664, 29.792,30.624L 123.216,392.128
	l 41.568,24.00l 17.392-30.112c 13.168,5.60, 27.232,9.456, 41.824,11.696L 224.00,432.00 l 48.00,0.00 l0.00-33.36 c 14.976-1.776, 29.312-5.472, 42.896-10.768l 16.336,28.272l 41.568-24.00
	l-16.00-27.712c 12.016-9.056, 22.848-19.552, 32.176-31.328l 27.168,15.68l 24.00-41.568l-26.704-15.424C 419.184,278.016, 423.072,263.296, 425.168,248.00z
	 M 247.856,328.144c-57.44,0.00-104.00-46.56-104.00-104.00s 46.56-104.00, 104.00-104.00s 104.00,46.56, 104.00,104.00S 305.296,328.144, 247.856,328.144z M 248.00,184.00
	c-22.096,0.00-40.00,17.904-40.00,40.00s 17.904,40.00, 40.00,40.00S 288.00,246.096, 288.00,224.00S 270.096,184.00, 248.00,184.00z" />
<glyph unicode="&#x6c;" d="M 488.88,76.496L 288.576,419.472c-16.704,16.704-43.808,16.704-60.512,0.00L 27.744,76.496
			c-16.704-16.688-16.704-43.776,0.00-60.496l 461.12,0.00 C 505.60,32.72, 505.60,59.808, 488.88,76.496z M 239.872,296.352c0.00,13.264, 10.752,24.00, 24.00,24.00
			s 24.00-10.736, 24.00-24.00l0.00-112.00 c0.00-13.248-10.752-24.00-24.00-24.00s-24.00,10.752-24.00,24.00L 239.872,296.352 z M 264.016,80.224c-13.248,0.00-24.00,10.72-24.00,24.00
			c0.00,13.248, 10.752,24.00, 24.00,24.00s 24.00-10.752, 24.00-24.00C 288.016,90.944, 277.264,80.224, 264.016,80.224z" />
<glyph unicode="&#x6d;" d="M 432.00,31.504l-32.00,0.00 l0.00-31.008 l-64.00,0.00 l0.00,31.008 L 160.00,31.504 l0.00-31.008 L 96.00,0.496 l0.00,31.008 L 64.00,31.504 c-17.68,0.00-32.00,14.336-32.00,32.00l0.00,272.00 
	c0.00,17.68, 14.32,32.00, 32.00,32.00l 368.00,0.00 c 17.664,0.00, 32.00-14.336, 32.00-32.00l0.00-272.00 C 464.00,45.824, 449.664,31.504, 432.00,31.504z M 335.984,223.504L 272.00,223.504 l0.00,64.00 l-48.00,0.00 l0.00-64.00 l-64.00,0.00 l0.00-48.00 l 64.00,0.00 l0.00-64.00 l 48.00,0.00 l0.00,64.00 l 63.984,0.00 
	L 335.984,223.504 z M 304.00,415.84l-96.00,0.00 l0.00-32.336 l-32.00,0.00 L 176.00,399.168 l 16.00,0.00 L 192.00,447.504 l 127.328,0.00 l0.00-48.00 L 336.00,399.504 l0.00-16.00 l-32.00,0.00 L 304.00,415.84 z" />
<glyph unicode="&#x6e;" d="M 432.00,16.00l-64.00,0.00 L 368.00,352.00 l 64.00,0.00 c 17.664,0.00, 32.00-14.336, 32.00-32.00l0.00-272.00 C 464.00,30.336, 449.664,16.00, 432.00,16.00z M 160.00,352.00L 160.00,352.00L 160.00,384.00 
	c0.00,17.68, 14.336,32.00, 32.00,32.00l 112.00,0.00 c 17.664,0.00, 32.00-14.32, 32.00-32.00l0.00-32.00 l0.00-336.00 L 160.00,16.00 L 160.00,352.00 z M 192.00,352.00l 112.00,0.00 c0.00,0.00,0.00,7.168,0.00,16.00c0.00,8.848-7.168,16.00-16.00,16.00l-80.00,0.00 c-8.848,0.00-16.00-7.152-16.00-16.00
	C 192.00,359.168, 192.00,352.00, 192.00,352.00z M 32.00,48.00L 32.00,320.00 c0.00,17.664, 14.336,32.00, 32.00,32.00l 64.00,0.00 l0.00-336.00 L 64.00,16.00 C 46.336,16.00, 32.00,30.336, 32.00,48.00z" />
<glyph unicode="&#x6f;" d="M 432.00,16.00L 64.00,16.00 c-17.68,0.00-32.00,14.336-32.00,32.00L 32.00,240.00 c0.00,0.00, 83.536-42.96, 160.00-60.544L 192.00,160.00 
	c0.00-8.848, 7.152-16.00, 16.00-16.00l 80.00,0.00 c 8.832,0.00, 16.00,7.152, 16.00,16.00l0.00,19.456 C 380.448,197.04, 464.00,240.00, 464.00,240.00l0.00-192.00 C 464.00,30.336, 449.664,16.00, 432.00,16.00z M 272.00,208.00
	c 8.832,0.00, 16.00-7.152, 16.00-16.00l0.00-16.00 c0.00-8.848-7.168-16.00-16.00-16.00l-48.00,0.00 c-8.848,0.00-16.00,7.152-16.00,16.00l0.00,16.00 c0.00,8.848, 7.152,16.00, 16.00,16.00L 272.00,208.00 z M 304.00,208.00c0.00,8.848-7.168,16.00-16.00,16.00l-80.00,0.00 
	c-8.848,0.00-16.00-7.152-16.00-16.00l0.00-14.336 C 115.536,211.776, 32.00,256.00, 32.00,256.00l0.00,64.00 c0.00,17.664, 14.32,32.00, 32.00,32.00l 96.00,0.00 L 160.00,384.00 c0.00,17.664, 14.336,32.00, 32.00,32.00l 112.00,0.00 c 17.664,0.00, 32.00-14.336, 32.00-32.00l0.00-32.00 l 96.00,0.00 
	c 17.664,0.00, 32.00-14.336, 32.00-32.00l0.00-64.00 c0.00,0.00-83.552-44.224-160.00-62.336L 304.00,208.00 z M 304.00,368.00c0.00,8.848-7.168,16.00-16.00,16.00l-80.00,0.00 c-8.848,0.00-16.00-7.152-16.00-16.00c0.00-8.832,0.00-16.00,0.00-16.00l 112.00,0.00 
	C 304.00,352.00, 304.00,359.168, 304.00,368.00z" />
<glyph unicode="&#x70;" d="M 448.00,16.00L 64.00,16.00 c-17.664,0.00-32.00,14.336-32.00,32.00l0.00,144.00 l 64.00,0.00 l0.00-48.00 l 64.00,0.00 l0.00,48.00 l 192.00,0.00 l0.00-48.00 l 64.00,0.00 l0.00,48.00 l 64.00,0.00 l0.00-144.00 
	C 480.00,30.336, 465.664,16.00, 448.00,16.00z M 368.00,160.00l0.00,64.00 l 32.00,0.00 l0.00-64.00 L 368.00,160.00 z M 112.00,160.00l0.00,64.00 l 32.00,0.00 l0.00-64.00 L 112.00,160.00 z M 416.00,240.00l-64.00,0.00 l0.00-32.00 L 160.00,208.00 l0.00,32.00 L 96.00,240.00 l0.00-32.00 L 32.00,208.00 l0.00,112.00 c0.00,17.664, 14.336,32.00, 32.00,32.00l 384.00,0.00 
	c 17.664,0.00, 32.00-14.336, 32.00-32.00l0.00-112.00 l-64.00,0.00 L 416.00,240.00 z M 304.00,400.336l-96.00,0.00 L 208.00,368.00 l-32.00,0.00 L 176.00,383.664 l 16.00,0.00 L 192.00,432.00 l 128.336,0.00 l0.00-48.00 L 336.00,384.00 l0.00-16.00 l-32.00,0.00 L 304.00,400.336 z" />
<glyph unicode="&#x71;" d="M 313.136,306.288l-50.304-75.712l-36.56,36.848l-36.576-59.152l-27.424,27.152L 132.576,176.00
			l 233.152,0.00 L 313.136,306.288z M 64.00,400.00l0.00-368.00 l 368.00,0.00 L 432.00,400.00 L 64.00,400.00 z M 400.00,144.00L 96.00,144.00 L 96.00,368.00 l 304.00,0.00 L 400.00,144.00 z M 167.856,270.864c 13.264,0.00, 24.00,10.736, 24.00,24.00s-10.736,24.00-24.00,24.00
			c-13.248,0.00-24.00-10.736-24.00-24.00S 154.608,270.864, 167.856,270.864z" />
<glyph unicode="&#x72;" d="M 443.728,165.84l-21.056-78.624l-0.592-0.16l-23.008-85.872l-148.736,39.84l-1.776-0.464
	l-156.608,41.952l-0.272,1.024L 50.00,94.72l 7.888,29.456l 0.512-0.144L 135.664,412.384L 135.152,412.528l 8.144,30.352l 273.68-73.344l 0.256,0.896
	l 75.376-20.192L 443.456,166.88L 443.728,165.84z M 454.112,328.032L 165.744,405.296l-56.928-212.48l 288.336-77.248L 454.112,328.032z M 195.744,265.728
	l 19.104-32.72l 49.712,46.80l 25.328-44.256l 66.96,59.024l 16.752-136.944L 152.448,216.928L 195.744,265.728z M 210.032,297.92
	c-12.56,3.376-20.032,16.304-16.656,28.864c 3.36,12.576, 16.288,20.048, 28.864,16.672c 12.56-3.376, 20.032-16.304, 16.656-28.864
	C 235.536,302.016, 222.608,294.544, 210.032,297.92z M 346.24,408.336l-6.624-1.776l-60.72,16.272l 89.568,24.00l 13.856-51.696l-35.04,9.392L 346.24,408.336
	z M 57.872,331.056l 19.872-74.16l-16.272-60.704L 19.392,353.28L 110.08,377.584l-9.392-35.04L 57.872,331.056z M 112.928,4.224L 96.64,64.992l 121.552-32.576
	L 112.928,4.224z" />
<glyph unicode="&#x73;" d="M 425.664,6.608l-41.984,11.52l-0.096,116.128l 40.16-11.296l 57.904,216.144L 188.336,417.696
	l-19.328-72.096L 135.92,345.60 l 29.808,111.232l 355.088-95.136L 425.664,6.608z M 368.624-32.00L0.00-32.00 L0.00,335.632 l 368.624,0.00 L 368.624-32.00 z M 336.656,303.664L 31.968,303.664 l0.00-223.76 l 304.688,0.00 
	L 336.656,303.664 z M 125.584,144.112l 36.528,59.072l 36.528-36.816l 50.224,75.632l 52.528-130.144L 68.496,111.856 l 29.68,59.36L 125.584,144.112z M 103.744,206.624
	c-13.248,0.00-23.984,10.72-23.984,23.968s 10.736,23.968, 23.984,23.968s 23.968-10.72, 23.968-23.968S 116.992,206.624, 103.744,206.624z" horiz-adv-x="520.8159790039062" />
<glyph unicode="&#x74;" d="M 368.00,160.00c-8.848,0.00-16.00,7.168-16.00,16.00l0.00,96.00 c0.00,8.848, 7.152,16.00, 16.00,16.00c 8.832,0.00, 16.00-7.152, 16.00-16.00l0.00-96.00 
	C 384.00,167.168, 376.832,160.00, 368.00,160.00z M 319.968,364.656C 335.936,337.104, 336.00,304.00, 336.00,304.00L 176.00,304.00 c0.00,0.00-0.624,33.536, 15.504,61.184l-30.128,30.128
	c-3.12,3.12-3.12,8.192,0.00,11.312s 8.192,3.12, 11.312,0.00l 28.256-28.256C 212.784,391.472, 230.24,400.992, 256.00,400.992
	c 25.44,0.00, 42.736-9.776, 54.56-23.104l 28.752,28.736c 3.12,3.12, 8.192,3.12, 11.312,0.00s 3.12-8.192,0.00-11.312L 319.968,364.656z M 216.00,352.00
	C 211.584,352.00, 208.00,348.416, 208.00,344.00S 211.584,336.00, 216.00,336.00C 220.40,336.00, 224.00,339.584, 224.00,344.00S 220.40,352.00, 216.00,352.00z M 296.00,352.00C 291.584,352.00, 288.00,348.416, 288.00,344.00
	S 291.584,336.00, 296.00,336.00C 300.40,336.00, 304.00,339.584, 304.00,344.00S 300.40,352.00, 296.00,352.00z M 160.00,176.00c0.00-8.832-7.168-16.00-16.00-16.00c-8.848,0.00-16.00,7.168-16.00,16.00l0.00,96.00 
	c0.00,8.848, 7.152,16.00, 16.00,16.00c 8.832,0.00, 16.00-7.152, 16.00-16.00L 160.00,176.00 z M 336.00,144.00c0.00-20.88-13.408-38.432-32.00-45.056L 304.00,48.00 c0.00-8.832-7.168-16.00-16.00-16.00c-8.848,0.00-16.00,7.168-16.00,16.00l0.00,48.00 
	l-32.00,0.00 l0.00-48.00 c0.00-8.832-7.168-16.00-16.00-16.00c-8.848,0.00-16.00,7.168-16.00,16.00l0.00,50.944 c-18.608,6.624-32.00,24.192-32.00,45.056l0.00,144.00 l 160.00,0.00 L 336.00,144.00 z" />
<glyph unicode="&#x75;" d="M 256.00,416.00C 149.968,416.00, 64.00,330.032, 64.00,224.00c0.00-106.048, 85.968-192.00, 192.00-192.00c 106.048,0.00, 192.00,85.952, 192.00,192.00
			C 448.00,330.032, 362.048,416.00, 256.00,416.00z M 377.20,194.944l-37.824-42.08l-8.144,59.152c-48.992,15.008-104.992,15.152-156.992,0.16l-5.056-59.888
			c0.00,0.00-41.056,42.256-41.792,42.256c-19.216-6.832-40.048-21.872-40.048-21.872l-0.992,12.992c0.00,0.00, 158.672,110.672, 332.016,0.00l-0.992-12.992
			C 417.344,172.656, 398.208,188.944, 377.20,194.944z" />
<glyph unicode="&#x76;" d="M 277.792,216.992l 133.424-135.728C 377.216,50.736, 332.416,32.00, 283.12,32.00
	c-106.032,0.00-192.00,85.968-192.00,192.00c0.00,106.032, 85.968,192.00, 192.00,192.00c 54.08,0.00, 102.848-22.432, 137.744-58.40L 277.792,216.992z M 290.784,352.672
	c-13.248,0.00-23.984-10.752-23.984-24.00c0.00-13.264, 10.736-24.00, 23.984-24.00c 13.264,0.00, 24.016,10.736, 24.016,24.00C 314.80,341.92, 304.048,352.672, 290.784,352.672
	z" />
<glyph unicode="&#x77;" d="M 448.272,31.744l-33.04,0.00 l-32.032,96.128L 111.824,127.872 l-32.048-96.128L 47.728,31.744 
	c-26.528,0.00-48.064,21.536-48.064,48.064L-0.336,368.192 c0.00,26.544, 21.536,48.048, 48.064,48.048l 400.528,0.00 c 26.544,0.00, 48.064-21.52, 48.064-48.048l0.00-288.384 
	C 496.336,53.28, 474.816,31.744, 448.272,31.744z M 447.264,368.192L 47.728,368.192 l0.00-208.272 l 399.536,0.00 L 447.264,368.192 z M 416.224,191.968L 79.776,191.968 L 79.776,336.144 l 336.432,0.00 L 416.208,191.968 z
	 M 151.808,304.368c-22.128,0.00-40.048-17.936-40.048-40.048s 17.92-40.048, 40.048-40.048s 40.064,17.936, 40.064,40.048S 173.936,304.368, 151.808,304.368z
	 M 271.024,280.064l-47.056,0.00 l0.00-32.032 l 47.056,0.00 L 271.024,280.064 z M 344.208,304.368c-22.128,0.00-40.048-17.936-40.048-40.048s 17.92-40.048, 40.048-40.048
	c 22.112,0.00, 40.048,17.936, 40.048,40.048S 366.32,304.368, 344.208,304.368z M 343.12,248.032c-8.848,0.00-16.016,7.168-16.016,16.016
	c0.00,8.848, 7.168,16.016, 16.016,16.016s 16.032-7.168, 16.032-16.016C 359.152,255.20, 351.968,248.032, 343.12,248.032z M 152.88,248.032
	c-8.848,0.00-16.016,7.168-16.016,16.016c0.00,8.848, 7.168,16.016, 16.016,16.016c 8.864,0.00, 16.032-7.168, 16.032-16.016
	C 168.912,255.20, 161.728,248.032, 152.88,248.032z M 372.16,111.856l 28.048-79.44L 94.80,32.416 l 27.024,79.44L 372.16,111.856 z M 352.144,63.792l 16.016,0.00 l0.00,16.016 l-16.016,0.00 
	L 352.144,63.792 z M 320.096,63.792l 16.032,0.00 l0.00,16.016 l-16.032,0.00 L 320.096,63.792 z M 207.952,63.792l 79.104,0.00 l0.00,16.016 l-79.104,0.00 L 207.952,63.792 z M 159.888,63.792l 16.016,0.00 l0.00,16.016 L 159.888,79.808 
	L 159.888,63.792 z M 127.84,63.792l 16.016,0.00 l0.00,16.016 L 127.84,79.808 L 127.84,63.792 z" />
<glyph unicode="&#x78;" d="M 112.016,240.00l 16.00,0.00 l0.00-16.00 l-16.00,0.00 l0.00-48.00 l 32.00,0.00 l0.00,16.00 l-16.00,0.00 l0.00,16.00 l 16.00,0.00 l0.00,48.00 l-32.00,0.00 L 112.016,240.00 z M 208.032,192.00l 16.00,0.00 l0.00,16.00 l-16.00,0.00 L 208.032,192.00 z M 160.016,240.00l 16.00,0.00 
			l0.00-16.00 l-16.00,0.00 l0.00-16.00 l 16.00,0.00 l0.00-16.00 l-16.00,0.00 l0.00-16.00 l 32.00,0.00 l0.00,80.00 l-32.00,0.00 L 160.016,240.00 z M 208.032,224.00l 16.00,0.00 l0.00,16.00 l-16.00,0.00 L 208.032,224.00 z M 240.032,176.00l 48.00,0.00 l0.00,80.00 l-48.00,0.00 L 240.032,176.00 z M 256.032,240.00l 16.00,0.00 l0.00-48.00 l-16.00,0.00 L 256.032,240.00 z M 320.032,256.00l-16.00,0.00 l0.00-48.00 l 32.00,0.00 l0.00-32.00 l 16.00,0.00 l0.00,80.00 l-16.00,0.00 
			l0.00-32.00 l-16.00,0.00 L 320.032,256.00 z M 448.032,256.00l-16.016,0.00 l 0.08,64.464l-90.08,95.376l-21.984,0.016L 320.032,448.00 l-176.00,0.00 l0.00-31.968 L 121.568,416.048L 32.192,321.984L 31.968,126.528l 89.072-93.376
			l 22.992-0.016L 144.032,0.00 l 176.00,0.00 l0.00,32.96 l 21.456-0.016l 90.384,94.08L 431.936,176.00l 16.096,0.00 c 8.848,0.00, 16.00,7.152, 16.00,16.00l0.00,48.00 C 464.032,248.832, 456.88,256.00, 448.032,256.00z
			 M 399.312,139.296l-72.032-75.76L 135.328,63.712l-70.768,75.024l 0.176,170.96L 134.784,384.48l 193.952-0.192l 70.768-76.032L 399.312,139.296z" />
<glyph unicode="&#x79;" d="M 448.864,182.864c0.00-110.928-89.92-200.864-200.864-200.864
	c-110.928,0.00-200.864,89.936-200.864,200.864c0.00,107.552, 84.576,195.072, 190.832,200.336L 237.968,417.856 l-15.056,0.00 c-8.88,0.00-16.08,7.20-16.08,16.08
	s 7.20,16.064, 16.08,16.064l 48.192,0.00 c 8.88,0.00, 16.08-7.184, 16.08-16.064s-7.20-16.08-16.08-16.08l-17.056,0.00 l0.00-34.448 
	C 362.16,380.208, 448.864,291.744, 448.864,182.864z M 237.968,321.456L 237.968,358.112 c-49.744-2.816-93.856-26.24-124.256-61.728l 26.448-26.448l-11.36-11.376
	l-25.04,25.056c-20.384-28.768-32.512-63.792-32.512-101.744c0.00-1.696, 0.24-4.016, 0.24-4.016L 110.40,177.856 l0.00-16.08 L 72.64,161.776 
	c 3.904-32.832, 16.912-63.792, 36.288-88.544l 19.888,19.888l 11.36-11.36l-20.736-20.752c 30.064-31.936, 71.808-52.752, 118.528-55.392L 237.968,49.28 l 16.064,0.00 l0.00-43.872 
	c 47.824,1.632, 90.72,22.288, 121.584,54.56l-22.784,22.784l 11.36,11.36l 22.032-22.016c 19.84,24.96, 33.184,56.336, 37.152,89.664l-40.80,0.00 l0.00,16.08 l 41.936,0.00 
	c 0.048,1.664, 0.256,2.32, 0.256,4.016c0.00,39.008-12.80,74.896-34.208,104.08l-26.368-26.368l-11.36,11.36l 27.616,27.60
	c-31.152,35.248-76.048,58.096-126.40,59.792l0.00-36.864 L 237.968,321.456 z M 255.024,177.84l 56.256,0.00 c 4.432,0.00, 8.032-3.616, 8.032-8.032
	c0.00-4.432-3.60-8.048-8.032-8.048l-64.288,0.00 c-4.432,0.00-8.032,3.616-8.032,8.048L 238.96,281.28 c0.00,4.432, 3.60,8.032, 8.032,8.032
	s 8.032-3.60, 8.032-8.032L 255.024,177.84 z" />
<glyph unicode="&#x7a;" d="M 448.00,191.504l-16.00,0.00 l0.00-112.00 c0.00-26.496-21.504-48.00-48.00-48.00l-64.00,0.00 l0.00-63.008 L 144.00-31.504 l0.00,63.008 L 80.00,31.504 c-26.512,0.00-48.00,21.504-48.00,48.00
	l0.00,272.00 c0.00,26.512, 21.488,48.00, 48.00,48.00l 64.00,0.00 l0.00,64.00 l 176.00,0.00 l0.00-64.00 l 64.00,0.00 c 26.496,0.00, 48.00-21.488, 48.00-48.00l0.00-112.00 l 16.00,0.00 c 8.832,0.00, 16.00-7.168, 16.00-16.00l0.00-16.00 C 464.00,198.672, 456.832,191.504, 448.00,191.504z M 400.00,335.504
	c0.00,17.68-14.336,32.00-32.00,32.00L 96.00,367.504 c-17.664,0.00-32.00-14.336-32.00-32.00l0.00-240.00 c0.00-17.664, 14.336-32.00, 32.00-32.00l 272.00,0.00 c 17.664,0.00, 32.00,14.336, 32.00,32.00L 400.00,335.504 z M 336.00,207.504l-16.00,0.00 l-16.00,0.00 l0.00,48.00 l 16.00,0.00 l0.00-32.00 l 16.00,0.00 l0.00,32.00 l 16.00,0.00 
	l0.00-80.00 l-16.00,0.00 L 336.00,207.504 z M 256.00,175.504l-16.00,0.00 l0.00,80.00 l 16.00,0.00 l 16.00,0.00 l 16.00,0.00 l0.00-80.00 l-16.00,0.00 L 256.00,175.504 z M 272.00,239.504l-16.00,0.00 l0.00-48.00 l 16.00,0.00 L 272.00,239.504 z M 208.00,207.504l 16.00,0.00 l0.00-16.00 l-16.00,0.00 L 208.00,207.504 z M 208.00,239.504l 16.00,0.00 l0.00-16.00 l-16.00,0.00 L 208.00,239.504 z
	 M 160.00,175.504l0.00,16.00 l 16.00,0.00 l0.00,16.00 l-16.00,0.00 l0.00,16.00 l 16.00,0.00 l0.00,16.00 l-16.00,0.00 l0.00,16.00 l 32.00,0.00 l0.00-16.00 l0.00-64.00 l-16.00,0.00 L 160.00,175.504 z M 112.00,175.504l0.00,48.00 l 16.00,0.00 l0.00,16.00 L 112.00,239.504 l0.00,16.00 l 32.00,0.00 l0.00-16.00 l0.00-32.00 L 128.00,207.504 l0.00-16.00 l 16.00,0.00 l0.00-16.00 L 128.00,175.504 L 112.00,175.504 z" />
<glyph unicode="&#x7b;" d="M 435.664,243.60c-21.984,60.912-75.60,107.664-142.256,122.544
	c 17.072,24.512, 45.376,40.624, 77.52,40.624c 52.224,0.00, 94.544-42.336, 94.544-94.56C 465.472,285.104, 453.92,260.832, 435.664,243.60z M 253.824,403.216
	l0.00-59.456 c 90.72-3.696, 163.184-78.208, 163.184-169.824c0.00-38.272-12.784-73.472-34.08-101.872l 39.424-68.304l-32.752-18.928l-33.744,58.464
	c-29.536-24.688-67.536-39.584-109.024-39.584c-41.264,0.00-79.088,14.704-108.544,39.12L 103.648-17.12l-32.752,18.928l 40.256,69.696
	c-21.568,28.512-34.496,63.92-34.496,102.432c0.00,91.008, 71.488,165.104, 161.344,169.728L 238.00,403.216 c-9.168,3.28-15.824,11.84-15.824,22.16
	c0.00,13.12, 10.64,23.744, 23.744,23.744c 13.12,0.00, 23.76-10.64, 23.76-23.744C 269.664,415.056, 263.008,406.496, 253.824,403.216z M 114.448,173.936
	c0.00-73.12, 59.264-132.368, 132.368-132.368c 73.088,0.00, 132.368,59.248, 132.368,132.368c0.00,73.088-59.28,132.352-132.368,132.352
	C 173.712,306.304, 114.448,247.024, 114.448,173.936z M 286.496,145.312l-47.504,0.00 c-8.752,0.00-15.84,7.088-15.84,15.84l0.00,63.344 
	c0.00,8.752, 7.088,15.84, 15.84,15.84c 8.736,0.00, 15.824-7.088, 15.824-15.84l0.00-47.504 l 31.664,0.00 c 8.752,0.00, 15.84-7.088, 15.84-15.84
	S 295.248,145.312, 286.496,145.312z M 60.352,243.60c-18.272,17.248-29.824,41.504-29.824,68.608c0.00,52.224, 42.336,94.56, 94.56,94.56
	c 32.128,0.00, 60.416-16.112, 77.52-40.624C 135.952,351.264, 82.336,304.512, 60.352,243.60z" />
<glyph unicode="&#x7c;" d="M 624.00,287.168l-32.00-0.336l0.00,32.672 c0.00,26.512-21.504,48.00-48.00,48.00L 48.00,367.504 c-26.512,0.00-48.00-21.488-48.00-48.00l0.00-176.00 
			c0.00-26.496, 21.488-48.00, 48.00-48.00l 63.664,0.00 l-0.336-15.008L 480.00,80.496 l-0.336,15.008L 544.00,95.504 c 26.496,0.00, 48.00,21.504, 48.00,48.00l0.00,32.992 l 32.656,0.00 L 624.00,287.168z M 576.00,143.504
			c0.00-17.664-14.336-32.00-32.00-32.00L 48.00,111.504 c-17.664,0.00-32.00,14.336-32.00,32.00l0.00,176.00 c0.00,17.664, 14.336,32.00, 32.00,32.00l 496.00,0.00 c 17.664,0.00, 32.00-14.336, 32.00-32.00L 576.00,143.504 z M 544.00,335.504L 48.00,335.504 
			c-8.848,0.00-16.00-7.152-16.00-16.00l0.00-176.00 c0.00-8.848, 7.152-16.00, 16.00-16.00l 496.00,0.00 c 8.832,0.00, 16.00,7.152, 16.00,16.00l0.00,176.00 C 560.00,328.336, 552.832,335.504, 544.00,335.504z M 515.952,287.776
			l-12.80-12.00l-38.896,0.00 l-10.88,12.00L 515.952,287.776 z M 501.28,237.776l 5.60-5.936l-6.72-5.936l-41.792,0.00 l-5.296,5.936l 6.40,5.936L 501.28,237.776 z M 450.992,285.664
			l 10.864-12.00l-2.704-32.00l-8.16-7.52l-4.16,4.48L 450.992,285.664z M 347.152,285.664l 10.864-12.00l-2.704-32.00l-8.16-7.52l-4.16,4.48
			L 347.152,285.664z M 397.392,237.776l 5.616-5.936l-6.736-5.936l-41.744,0.00 l-5.28,5.936l 6.384,5.936L 397.392,237.776 z M 187.28,285.664l 10.864-12.00
			l-2.80-32.00l-8.08-7.536l-4.112,4.48L 187.28,285.664z M 237.504,237.776l 5.616-5.936l-6.72-5.936l-41.808,0.00 l-5.216,5.936l 6.384,5.936
			L 237.504,237.776 z M 148.40,287.776l-12.816-12.00l-38.88,0.00 l-10.88,12.00L 148.40,287.776 z M 83.44,285.664l 10.88-12.00l-2.816-32.00l-8.08-7.536l-4.112,4.48
			L 83.44,285.664z M 78.112,225.024l 4.80,4.624l 6.88-7.504l-2.688-32.016l-13.088-12.00L 78.112,225.024z M 76.00,175.904l 13.12,12.00l 38.816,0.00 
			l 10.704-12.00L 76.00,175.904 z M 141.04,178.16l-10.752,11.984l 2.688,32.016l 8.176,7.504l 4.00-4.624L 141.04,178.16z M 146.336,238.624l-4.688-4.48
			l-6.96,7.536l 2.80,32.00l 12.992,12.00L 146.336,238.624z M 181.952,225.024l 4.80,4.624l 6.88-7.504l-2.688-32.016l-13.088-11.984L 181.952,225.024z
			 M 179.824,175.904l 13.12,12.00l 38.832,0.00 l 10.704-12.00L 179.824,175.904 z M 244.88,178.144l-10.72,12.00l 2.704,32.00l 8.176,7.52l 4.016-4.624L 244.88,178.144z
			 M 239.44,275.776l-38.88,0.00 l-10.896,12.00l 62.56,0.00 L 239.44,275.776z M 297.20,175.904l-12.00,0.00 l 1.104,12.00l 12.00,0.00 L 297.20,175.904z M 304.24,257.152
			l-12.00,0.00 l 1.12,12.00l 12.00,0.00 L 304.24,257.152z M 339.792,175.904l 12.96,12.00l 38.88,0.00 l 10.72-12.00L 339.792,175.904 z M 404.752,178.16l-10.736,11.984l 2.72,32.00
			l 8.176,7.52l 4.00-4.624L 404.752,178.16z M 399.312,275.776l-38.88,0.00 l-10.896,12.00l 62.56,0.00 L 399.312,275.776z M 443.632,175.904l 12.976,12.00l 38.88,0.00 
			l 10.72-12.00L 443.632,175.904 z M 508.592,178.16l-10.752,11.984l 2.688,32.016l 8.176,7.504l 4.00-4.624L 508.592,178.16z M 513.904,238.624l-4.704-4.48
			l-6.96,7.536l 2.816,32.00l 12.992,12.00L 513.904,238.624z" horiz-adv-x="624.3679809570312" />
<glyph unicode="&#x7d;" d="M 256.00,424.00c-114.896,0.00-208.00-93.12-208.00-208.00s 93.104-208.00, 208.00-208.00c 114.864,0.00, 208.00,93.12, 208.00,208.00
			S 370.88,424.00, 256.00,424.00z M 254.32,47.568c-92.784,0.00-168.00,75.216-168.00,168.00c0.00,92.784, 75.216,168.00, 168.00,168.00c 92.768,0.00, 168.00-75.216, 168.00-168.00
			C 422.32,122.784, 347.088,47.568, 254.32,47.568z M 302.88,205.904l-47.68,0.00 l0.00,80.512 c0.00,8.736-7.088,15.84-15.824,15.84
			c-8.752,0.00-15.84-7.088-15.84-15.84l0.00-96.336 c0.00-8.752, 7.088-15.824, 15.84-15.824l 63.504,0.00 c 8.752,0.00, 15.84,7.072, 15.84,15.824
			C 318.72,198.816, 311.632,205.904, 302.88,205.904z" />
<glyph unicode="&#xe000;" d="M 384.00,32.00l0.00,32.00 l-0.40,0.00 C 383.744,66.656, 384.00,69.296, 384.00,72.00L 384.00,208.00 l0.00,40.00 
	C 384.00,323.104, 323.104,384.00, 248.00,384.00S 112.00,323.104, 112.00,248.00L 112.00,208.00 l0.00-136.00 c0.00-2.704, 0.256-5.344, 0.40-8.00L 112.00,64.00 l0.00-32.00 c0.00,0.00-80.00,1.344-80.00,88.00c0.00,49.152, 25.712,70.832, 48.00,80.40
	L 80.00,248.00 C 80.00,340.784, 155.216,416.00, 248.00,416.00S 416.00,340.784, 416.00,248.00l0.00-47.60 c 22.288-9.584, 48.00-31.248, 48.00-80.40C 464.00,33.344, 384.00,32.00, 384.00,32.00z M 144.00,32.00L 128.00,32.00 L 128.00,208.00 l 16.00,0.00 L 144.00,32.00 z M 368.00,32.00
	l-16.00,0.00 L 352.00,208.00 l 16.00,0.00 L 368.00,32.00 z" />
<glyph unicode="&#xe001;" d="M 288.00,128.00c-17.664,0.00-32.00,14.336-32.00,32.00l0.00,32.00 c0.00,17.68, 14.336,32.00, 32.00,32.00l 192.00,0.00 l0.00-96.00 L 288.00,128.00 z M 312.00,198.672
	c-13.248,0.00-24.00-10.752-24.00-24.00c0.00-13.264, 10.752-24.00, 24.00-24.00c 13.264,0.00, 24.00,10.736, 24.00,24.00C 336.00,187.92, 325.264,198.672, 312.00,198.672z M 240.00,192.00l0.00-32.00 
	c0.00-26.496, 21.504-48.00, 48.00-48.00l 160.00,0.00 l0.00-64.00 c0.00-26.496-21.488-48.00-48.00-48.00L 64.00,0.00 c-26.496,0.00-48.00,21.504-48.00,48.00L 16.00,352.00 c0.00,26.512, 21.504,48.00, 48.00,48.00l 154.112,0.00 l-37.584-15.664L 56.016,384.336 
	c-13.248,0.00-24.00-10.752-24.00-24.00c0.00-13.264, 10.752-24.00, 24.00-24.00L 448.00,336.336 L 448.00,240.00 L 288.00,240.00 C 261.504,240.00, 240.00,218.512, 240.00,192.00z M 80.016,304.00l-32.00,0.00 l0.00-32.00 l 16.00,0.00 l0.00,16.00 l 16.00,0.00 L 80.016,304.00 z M 80.016,256.00
	l-32.00,0.00 l0.00-32.00 l 16.656,0.00 l-0.656,16.00l 16.00-0.336L 80.016,256.00 z M 80.016,208.00l-32.00,0.00 l0.00-32.00 l 16.336,0.00 l-0.336,16.00l 16.00,0.00 L 80.016,208.00 z M 80.016,160.00l-32.00,0.00 l0.00-32.00 l 16.336,0.00 l-0.336,16.00l 16.00-0.336L 80.016,160.00 z M 80.016,112.00l-32.00,0.00 l0.00-32.00 l 16.00,0.00 
	l0.00,16.00 l 16.00,0.00 L 80.016,112.00 z M 80.016,64.00l-32.00,0.00 l0.00-32.00 l 16.336,0.00 l-0.336,15.664l 16.00,0.00 L 80.016,64.00 z M 144.016,352.992L 332.016,432.00l 36.00-79.008L 144.016,352.992 z M 362.336,400.00L 400.00,400.00 
	c 14.016,0.00, 26.496-6.096, 35.28-15.664l-65.296,0.00 L 362.336,400.00z" />
<glyph unicode="&#xe002;" d="M 463.968,343.504l-34.144,34.144c-6.304,6.288-16.48,6.288-22.768,0.00L 202.336,172.928
	L 104.96,271.008c-6.288,6.288-16.464,6.288-22.768,0.00l-34.144-34.144c-6.288-6.304-6.288-16.48,0.00-22.768l 142.784-143.744
	c 6.288-6.288, 16.48-6.288, 22.768,0.00L 463.968,320.736C 470.256,327.008, 470.256,337.216, 463.968,343.504z" />
</font>
</defs>
</svg>
